<svg width="1024" height="768" viewBox="0 0 1024 768" xmlns="http://www.w3.org/2000/svg">
<rect x="0" y="0" width="1024" height="768" opacity="1" fill="#FFFFFF" stroke="none"/>
<line opacity="0.1" stroke="#000000" stroke-width="1" x1="40" y1="727" x2="40" y2="0"/>
<line opacity="0.1" stroke="#000000" stroke-width="1" x1="49" y1="727" x2="49" y2="0"/>
<line opacity="0.1" stroke="#000000" stroke-width="1" x1="58" y1="727" x2="58" y2="0"/>
<line opacity="0.1" stroke="#000000" stroke-width="1" x1="67" y1="727" x2="67" y2="0"/>
<line opacity="0.1" stroke="#000000" stroke-width="1" x1="76" y1="727" x2="76" y2="0"/>
<line opacity="0.1" stroke="#000000" stroke-width="1" x1="85" y1="727" x2="85" y2="0"/>
<line opacity="0.1" stroke="#000000" stroke-width="1" x1="94" y1="727" x2="94" y2="0"/>
<line opacity="0.1" stroke="#000000" stroke-width="1" x1="103" y1="727" x2="103" y2="0"/>
<line opacity="0.1" stroke="#000000" stroke-width="1" x1="112" y1="727" x2="112" y2="0"/>
<line opacity="0.1" stroke="#000000" stroke-width="1" x1="121" y1="727" x2="121" y2="0"/>
<line opacity="0.1" stroke="#000000" stroke-width="1" x1="131" y1="727" x2="131" y2="0"/>
<line opacity="0.1" stroke="#000000" stroke-width="1" x1="140" y1="727" x2="140" y2="0"/>
<line opacity="0.1" stroke="#000000" stroke-width="1" x1="149" y1="727" x2="149" y2="0"/>
<line opacity="0.1" stroke="#000000" stroke-width="1" x1="158" y1="727" x2="158" y2="0"/>
<line opacity="0.1" stroke="#000000" stroke-width="1" x1="167" y1="727" x2="167" y2="0"/>
<line opacity="0.1" stroke="#000000" stroke-width="1" x1="176" y1="727" x2="176" y2="0"/>
<line opacity="0.1" stroke="#000000" stroke-width="1" x1="185" y1="727" x2="185" y2="0"/>
<line opacity="0.1" stroke="#000000" stroke-width="1" x1="194" y1="727" x2="194" y2="0"/>
<line opacity="0.1" stroke="#000000" stroke-width="1" x1="203" y1="727" x2="203" y2="0"/>
<line opacity="0.1" stroke="#000000" stroke-width="1" x1="212" y1="727" x2="212" y2="0"/>
<line opacity="0.1" stroke="#000000" stroke-width="1" x1="222" y1="727" x2="222" y2="0"/>
<line opacity="0.1" stroke="#000000" stroke-width="1" x1="231" y1="727" x2="231" y2="0"/>
<line opacity="0.1" stroke="#000000" stroke-width="1" x1="240" y1="727" x2="240" y2="0"/>
<line opacity="0.1" stroke="#000000" stroke-width="1" x1="249" y1="727" x2="249" y2="0"/>
<line opacity="0.1" stroke="#000000" stroke-width="1" x1="258" y1="727" x2="258" y2="0"/>
<line opacity="0.1" stroke="#000000" stroke-width="1" x1="267" y1="727" x2="267" y2="0"/>
<line opacity="0.1" stroke="#000000" stroke-width="1" x1="276" y1="727" x2="276" y2="0"/>
<line opacity="0.1" stroke="#000000" stroke-width="1" x1="285" y1="727" x2="285" y2="0"/>
<line opacity="0.1" stroke="#000000" stroke-width="1" x1="294" y1="727" x2="294" y2="0"/>
<line opacity="0.1" stroke="#000000" stroke-width="1" x1="303" y1="727" x2="303" y2="0"/>
<line opacity="0.1" stroke="#000000" stroke-width="1" x1="313" y1="727" x2="313" y2="0"/>
<line opacity="0.1" stroke="#000000" stroke-width="1" x1="322" y1="727" x2="322" y2="0"/>
<line opacity="0.1" stroke="#000000" stroke-width="1" x1="331" y1="727" x2="331" y2="0"/>
<line opacity="0.1" stroke="#000000" stroke-width="1" x1="340" y1="727" x2="340" y2="0"/>
<line opacity="0.1" stroke="#000000" stroke-width="1" x1="349" y1="727" x2="349" y2="0"/>
<line opacity="0.1" stroke="#000000" stroke-width="1" x1="358" y1="727" x2="358" y2="0"/>
<line opacity="0.1" stroke="#000000" stroke-width="1" x1="367" y1="727" x2="367" y2="0"/>
<line opacity="0.1" stroke="#000000" stroke-width="1" x1="376" y1="727" x2="376" y2="0"/>
<line opacity="0.1" stroke="#000000" stroke-width="1" x1="385" y1="727" x2="385" y2="0"/>
<line opacity="0.1" stroke="#000000" stroke-width="1" x1="394" y1="727" x2="394" y2="0"/>
<line opacity="0.1" stroke="#000000" stroke-width="1" x1="404" y1="727" x2="404" y2="0"/>
<line opacity="0.1" stroke="#000000" stroke-width="1" x1="413" y1="727" x2="413" y2="0"/>
<line opacity="0.1" stroke="#000000" stroke-width="1" x1="422" y1="727" x2="422" y2="0"/>
<line opacity="0.1" stroke="#000000" stroke-width="1" x1="431" y1="727" x2="431" y2="0"/>
<line opacity="0.1" stroke="#000000" stroke-width="1" x1="440" y1="727" x2="440" y2="0"/>
<line opacity="0.1" stroke="#000000" stroke-width="1" x1="449" y1="727" x2="449" y2="0"/>
<line opacity="0.1" stroke="#000000" stroke-width="1" x1="458" y1="727" x2="458" y2="0"/>
<line opacity="0.1" stroke="#000000" stroke-width="1" x1="467" y1="727" x2="467" y2="0"/>
<line opacity="0.1" stroke="#000000" stroke-width="1" x1="476" y1="727" x2="476" y2="0"/>
<line opacity="0.1" stroke="#000000" stroke-width="1" x1="485" y1="727" x2="485" y2="0"/>
<line opacity="0.1" stroke="#000000" stroke-width="1" x1="495" y1="727" x2="495" y2="0"/>
<line opacity="0.1" stroke="#000000" stroke-width="1" x1="504" y1="727" x2="504" y2="0"/>
<line opacity="0.1" stroke="#000000" stroke-width="1" x1="513" y1="727" x2="513" y2="0"/>
<line opacity="0.1" stroke="#000000" stroke-width="1" x1="522" y1="727" x2="522" y2="0"/>
<line opacity="0.1" stroke="#000000" stroke-width="1" x1="531" y1="727" x2="531" y2="0"/>
<line opacity="0.1" stroke="#000000" stroke-width="1" x1="540" y1="727" x2="540" y2="0"/>
<line opacity="0.1" stroke="#000000" stroke-width="1" x1="549" y1="727" x2="549" y2="0"/>
<line opacity="0.1" stroke="#000000" stroke-width="1" x1="558" y1="727" x2="558" y2="0"/>
<line opacity="0.1" stroke="#000000" stroke-width="1" x1="567" y1="727" x2="567" y2="0"/>
<line opacity="0.1" stroke="#000000" stroke-width="1" x1="577" y1="727" x2="577" y2="0"/>
<line opacity="0.1" stroke="#000000" stroke-width="1" x1="586" y1="727" x2="586" y2="0"/>
<line opacity="0.1" stroke="#000000" stroke-width="1" x1="595" y1="727" x2="595" y2="0"/>
<line opacity="0.1" stroke="#000000" stroke-width="1" x1="604" y1="727" x2="604" y2="0"/>
<line opacity="0.1" stroke="#000000" stroke-width="1" x1="613" y1="727" x2="613" y2="0"/>
<line opacity="0.1" stroke="#000000" stroke-width="1" x1="622" y1="727" x2="622" y2="0"/>
<line opacity="0.1" stroke="#000000" stroke-width="1" x1="631" y1="727" x2="631" y2="0"/>
<line opacity="0.1" stroke="#000000" stroke-width="1" x1="640" y1="727" x2="640" y2="0"/>
<line opacity="0.1" stroke="#000000" stroke-width="1" x1="649" y1="727" x2="649" y2="0"/>
<line opacity="0.1" stroke="#000000" stroke-width="1" x1="658" y1="727" x2="658" y2="0"/>
<line opacity="0.1" stroke="#000000" stroke-width="1" x1="668" y1="727" x2="668" y2="0"/>
<line opacity="0.1" stroke="#000000" stroke-width="1" x1="677" y1="727" x2="677" y2="0"/>
<line opacity="0.1" stroke="#000000" stroke-width="1" x1="686" y1="727" x2="686" y2="0"/>
<line opacity="0.1" stroke="#000000" stroke-width="1" x1="695" y1="727" x2="695" y2="0"/>
<line opacity="0.1" stroke="#000000" stroke-width="1" x1="704" y1="727" x2="704" y2="0"/>
<line opacity="0.1" stroke="#000000" stroke-width="1" x1="713" y1="727" x2="713" y2="0"/>
<line opacity="0.1" stroke="#000000" stroke-width="1" x1="722" y1="727" x2="722" y2="0"/>
<line opacity="0.1" stroke="#000000" stroke-width="1" x1="731" y1="727" x2="731" y2="0"/>
<line opacity="0.1" stroke="#000000" stroke-width="1" x1="740" y1="727" x2="740" y2="0"/>
<line opacity="0.1" stroke="#000000" stroke-width="1" x1="749" y1="727" x2="749" y2="0"/>
<line opacity="0.1" stroke="#000000" stroke-width="1" x1="759" y1="727" x2="759" y2="0"/>
<line opacity="0.1" stroke="#000000" stroke-width="1" x1="768" y1="727" x2="768" y2="0"/>
<line opacity="0.1" stroke="#000000" stroke-width="1" x1="777" y1="727" x2="777" y2="0"/>
<line opacity="0.1" stroke="#000000" stroke-width="1" x1="786" y1="727" x2="786" y2="0"/>
<line opacity="0.1" stroke="#000000" stroke-width="1" x1="795" y1="727" x2="795" y2="0"/>
<line opacity="0.1" stroke="#000000" stroke-width="1" x1="804" y1="727" x2="804" y2="0"/>
<line opacity="0.1" stroke="#000000" stroke-width="1" x1="813" y1="727" x2="813" y2="0"/>
<line opacity="0.1" stroke="#000000" stroke-width="1" x1="822" y1="727" x2="822" y2="0"/>
<line opacity="0.1" stroke="#000000" stroke-width="1" x1="831" y1="727" x2="831" y2="0"/>
<line opacity="0.1" stroke="#000000" stroke-width="1" x1="840" y1="727" x2="840" y2="0"/>
<line opacity="0.1" stroke="#000000" stroke-width="1" x1="850" y1="727" x2="850" y2="0"/>
<line opacity="0.1" stroke="#000000" stroke-width="1" x1="859" y1="727" x2="859" y2="0"/>
<line opacity="0.1" stroke="#000000" stroke-width="1" x1="868" y1="727" x2="868" y2="0"/>
<line opacity="0.1" stroke="#000000" stroke-width="1" x1="877" y1="727" x2="877" y2="0"/>
<line opacity="0.1" stroke="#000000" stroke-width="1" x1="886" y1="727" x2="886" y2="0"/>
<line opacity="0.1" stroke="#000000" stroke-width="1" x1="895" y1="727" x2="895" y2="0"/>
<line opacity="0.1" stroke="#000000" stroke-width="1" x1="904" y1="727" x2="904" y2="0"/>
<line opacity="0.1" stroke="#000000" stroke-width="1" x1="913" y1="727" x2="913" y2="0"/>
<line opacity="0.1" stroke="#000000" stroke-width="1" x1="922" y1="727" x2="922" y2="0"/>
<line opacity="0.1" stroke="#000000" stroke-width="1" x1="931" y1="727" x2="931" y2="0"/>
<line opacity="0.1" stroke="#000000" stroke-width="1" x1="941" y1="727" x2="941" y2="0"/>
<line opacity="0.1" stroke="#000000" stroke-width="1" x1="950" y1="727" x2="950" y2="0"/>
<line opacity="0.1" stroke="#000000" stroke-width="1" x1="959" y1="727" x2="959" y2="0"/>
<line opacity="0.1" stroke="#000000" stroke-width="1" x1="968" y1="727" x2="968" y2="0"/>
<line opacity="0.1" stroke="#000000" stroke-width="1" x1="977" y1="727" x2="977" y2="0"/>
<line opacity="0.1" stroke="#000000" stroke-width="1" x1="986" y1="727" x2="986" y2="0"/>
<line opacity="0.1" stroke="#000000" stroke-width="1" x1="995" y1="727" x2="995" y2="0"/>
<line opacity="0.1" stroke="#000000" stroke-width="1" x1="1004" y1="727" x2="1004" y2="0"/>
<line opacity="0.1" stroke="#000000" stroke-width="1" x1="1013" y1="727" x2="1013" y2="0"/>
<line opacity="0.1" stroke="#000000" stroke-width="1" x1="1023" y1="727" x2="1023" y2="0"/>
<line opacity="0.1" stroke="#000000" stroke-width="1" x1="40" y1="727" x2="1023" y2="727"/>
<line opacity="0.1" stroke="#000000" stroke-width="1" x1="40" y1="716" x2="1023" y2="716"/>
<line opacity="0.1" stroke="#000000" stroke-width="1" x1="40" y1="705" x2="1023" y2="705"/>
<line opacity="0.1" stroke="#000000" stroke-width="1" x1="40" y1="693" x2="1023" y2="693"/>
<line opacity="0.1" stroke="#000000" stroke-width="1" x1="40" y1="682" x2="1023" y2="682"/>
<line opacity="0.1" stroke="#000000" stroke-width="1" x1="40" y1="671" x2="1023" y2="671"/>
<line opacity="0.1" stroke="#000000" stroke-width="1" x1="40" y1="659" x2="1023" y2="659"/>
<line opacity="0.1" stroke="#000000" stroke-width="1" x1="40" y1="648" x2="1023" y2="648"/>
<line opacity="0.1" stroke="#000000" stroke-width="1" x1="40" y1="637" x2="1023" y2="637"/>
<line opacity="0.1" stroke="#000000" stroke-width="1" x1="40" y1="625" x2="1023" y2="625"/>
<line opacity="0.1" stroke="#000000" stroke-width="1" x1="40" y1="614" x2="1023" y2="614"/>
<line opacity="0.1" stroke="#000000" stroke-width="1" x1="40" y1="603" x2="1023" y2="603"/>
<line opacity="0.1" stroke="#000000" stroke-width="1" x1="40" y1="591" x2="1023" y2="591"/>
<line opacity="0.1" stroke="#000000" stroke-width="1" x1="40" y1="580" x2="1023" y2="580"/>
<line opacity="0.1" stroke="#000000" stroke-width="1" x1="40" y1="568" x2="1023" y2="568"/>
<line opacity="0.1" stroke="#000000" stroke-width="1" x1="40" y1="557" x2="1023" y2="557"/>
<line opacity="0.1" stroke="#000000" stroke-width="1" x1="40" y1="546" x2="1023" y2="546"/>
<line opacity="0.1" stroke="#000000" stroke-width="1" x1="40" y1="534" x2="1023" y2="534"/>
<line opacity="0.1" stroke="#000000" stroke-width="1" x1="40" y1="523" x2="1023" y2="523"/>
<line opacity="0.1" stroke="#000000" stroke-width="1" x1="40" y1="512" x2="1023" y2="512"/>
<line opacity="0.1" stroke="#000000" stroke-width="1" x1="40" y1="500" x2="1023" y2="500"/>
<line opacity="0.1" stroke="#000000" stroke-width="1" x1="40" y1="489" x2="1023" y2="489"/>
<line opacity="0.1" stroke="#000000" stroke-width="1" x1="40" y1="478" x2="1023" y2="478"/>
<line opacity="0.1" stroke="#000000" stroke-width="1" x1="40" y1="466" x2="1023" y2="466"/>
<line opacity="0.1" stroke="#000000" stroke-width="1" x1="40" y1="455" x2="1023" y2="455"/>
<line opacity="0.1" stroke="#000000" stroke-width="1" x1="40" y1="444" x2="1023" y2="444"/>
<line opacity="0.1" stroke="#000000" stroke-width="1" x1="40" y1="432" x2="1023" y2="432"/>
<line opacity="0.1" stroke="#000000" stroke-width="1" x1="40" y1="421" x2="1023" y2="421"/>
<line opacity="0.1" stroke="#000000" stroke-width="1" x1="40" y1="409" x2="1023" y2="409"/>
<line opacity="0.1" stroke="#000000" stroke-width="1" x1="40" y1="398" x2="1023" y2="398"/>
<line opacity="0.1" stroke="#000000" stroke-width="1" x1="40" y1="387" x2="1023" y2="387"/>
<line opacity="0.1" stroke="#000000" stroke-width="1" x1="40" y1="375" x2="1023" y2="375"/>
<line opacity="0.1" stroke="#000000" stroke-width="1" x1="40" y1="364" x2="1023" y2="364"/>
<line opacity="0.1" stroke="#000000" stroke-width="1" x1="40" y1="353" x2="1023" y2="353"/>
<line opacity="0.1" stroke="#000000" stroke-width="1" x1="40" y1="341" x2="1023" y2="341"/>
<line opacity="0.1" stroke="#000000" stroke-width="1" x1="40" y1="330" x2="1023" y2="330"/>
<line opacity="0.1" stroke="#000000" stroke-width="1" x1="40" y1="319" x2="1023" y2="319"/>
<line opacity="0.1" stroke="#000000" stroke-width="1" x1="40" y1="307" x2="1023" y2="307"/>
<line opacity="0.1" stroke="#000000" stroke-width="1" x1="40" y1="296" x2="1023" y2="296"/>
<line opacity="0.1" stroke="#000000" stroke-width="1" x1="40" y1="284" x2="1023" y2="284"/>
<line opacity="0.1" stroke="#000000" stroke-width="1" x1="40" y1="273" x2="1023" y2="273"/>
<line opacity="0.1" stroke="#000000" stroke-width="1" x1="40" y1="262" x2="1023" y2="262"/>
<line opacity="0.1" stroke="#000000" stroke-width="1" x1="40" y1="250" x2="1023" y2="250"/>
<line opacity="0.1" stroke="#000000" stroke-width="1" x1="40" y1="239" x2="1023" y2="239"/>
<line opacity="0.1" stroke="#000000" stroke-width="1" x1="40" y1="228" x2="1023" y2="228"/>
<line opacity="0.1" stroke="#000000" stroke-width="1" x1="40" y1="216" x2="1023" y2="216"/>
<line opacity="0.1" stroke="#000000" stroke-width="1" x1="40" y1="205" x2="1023" y2="205"/>
<line opacity="0.1" stroke="#000000" stroke-width="1" x1="40" y1="194" x2="1023" y2="194"/>
<line opacity="0.1" stroke="#000000" stroke-width="1" x1="40" y1="182" x2="1023" y2="182"/>
<line opacity="0.1" stroke="#000000" stroke-width="1" x1="40" y1="171" x2="1023" y2="171"/>
<line opacity="0.1" stroke="#000000" stroke-width="1" x1="40" y1="160" x2="1023" y2="160"/>
<line opacity="0.1" stroke="#000000" stroke-width="1" x1="40" y1="148" x2="1023" y2="148"/>
<line opacity="0.1" stroke="#000000" stroke-width="1" x1="40" y1="137" x2="1023" y2="137"/>
<line opacity="0.1" stroke="#000000" stroke-width="1" x1="40" y1="125" x2="1023" y2="125"/>
<line opacity="0.1" stroke="#000000" stroke-width="1" x1="40" y1="114" x2="1023" y2="114"/>
<line opacity="0.1" stroke="#000000" stroke-width="1" x1="40" y1="103" x2="1023" y2="103"/>
<line opacity="0.1" stroke="#000000" stroke-width="1" x1="40" y1="91" x2="1023" y2="91"/>
<line opacity="0.1" stroke="#000000" stroke-width="1" x1="40" y1="80" x2="1023" y2="80"/>
<line opacity="0.1" stroke="#000000" stroke-width="1" x1="40" y1="69" x2="1023" y2="69"/>
<line opacity="0.1" stroke="#000000" stroke-width="1" x1="40" y1="57" x2="1023" y2="57"/>
<line opacity="0.1" stroke="#000000" stroke-width="1" x1="40" y1="46" x2="1023" y2="46"/>
<line opacity="0.1" stroke="#000000" stroke-width="1" x1="40" y1="35" x2="1023" y2="35"/>
<line opacity="0.1" stroke="#000000" stroke-width="1" x1="40" y1="23" x2="1023" y2="23"/>
<line opacity="0.1" stroke="#000000" stroke-width="1" x1="40" y1="12" x2="1023" y2="12"/>
<line opacity="0.1" stroke="#000000" stroke-width="1" x1="40" y1="0" x2="1023" y2="0"/>
<text x="0" y="364" dy="0.76em" text-anchor="middle" font-family="sans-serif" font-size="9.67741935483871" opacity="1" fill="#000000" transform="rotate(270, 0, 364)">
hwy
</text>
<text x="532" y="768" dy="-0.5ex" text-anchor="middle" font-family="sans-serif" font-size="9.67741935483871" opacity="1" fill="#000000">
displ
</text>
<line opacity="0.2" stroke="#000000" stroke-width="1" x1="112" y1="727" x2="112" y2="0"/>
<line opacity="0.2" stroke="#000000" stroke-width="1" x1="203" y1="727" x2="203" y2="0"/>
<line opacity="0.2" stroke="#000000" stroke-width="1" x1="294" y1="727" x2="294" y2="0"/>
<line opacity="0.2" stroke="#000000" stroke-width="1" x1="385" y1="727" x2="385" y2="0"/>
<line opacity="0.2" stroke="#000000" stroke-width="1" x1="476" y1="727" x2="476" y2="0"/>
<line opacity="0.2" stroke="#000000" stroke-width="1" x1="567" y1="727" x2="567" y2="0"/>
<line opacity="0.2" stroke="#000000" stroke-width="1" x1="658" y1="727" x2="658" y2="0"/>
<line opacity="0.2" stroke="#000000" stroke-width="1" x1="749" y1="727" x2="749" y2="0"/>
<line opacity="0.2" stroke="#000000" stroke-width="1" x1="840" y1="727" x2="840" y2="0"/>
<line opacity="0.2" stroke="#000000" stroke-width="1" x1="931" y1="727" x2="931" y2="0"/>
<line opacity="0.2" stroke="#000000" stroke-width="1" x1="1023" y1="727" x2="1023" y2="0"/>
<line opacity="0.2" stroke="#000000" stroke-width="1" x1="40" y1="659" x2="1023" y2="659"/>
<line opacity="0.2" stroke="#000000" stroke-width="1" x1="40" y1="546" x2="1023" y2="546"/>
<line opacity="0.2" stroke="#000000" stroke-width="1" x1="40" y1="432" x2="1023" y2="432"/>
<line opacity="0.2" stroke="#000000" stroke-width="1" x1="40" y1="319" x2="1023" y2="319"/>
<line opacity="0.2" stroke="#000000" stroke-width="1" x1="40" y1="205" x2="1023" y2="205"/>
<line opacity="0.2" stroke="#000000" stroke-width="1" x1="40" y1="91" x2="1023" y2="91"/>
<polyline fill="none" opacity="1" stroke="#000000" stroke-width="1" points="39,0 39,727 "/>
<text x="30" y="659" dy="0.5ex" text-anchor="end" font-family="sans-serif" font-size="9.67741935483871" opacity="1" fill="#000000">
15.0
</text>
<polyline fill="none" opacity="1" stroke="#000000" stroke-width="1" points="34,659 39,659 "/>
<text x="30" y="546" dy="0.5ex" text-anchor="end" font-family="sans-serif" font-size="9.67741935483871" opacity="1" fill="#000000">
20.0
</text>
<polyline fill="none" opacity="1" stroke="#000000" stroke-width="1" points="34,546 39,546 "/>
<text x="30" y="432" dy="0.5ex" text-anchor="end" font-family="sans-serif" font-size="9.67741935483871" opacity="1" fill="#000000">
25.0
</text>
<polyline fill="none" opacity="1" stroke="#000000" stroke-width="1" points="34,432 39,432 "/>
<text x="30" y="319" dy="0.5ex" text-anchor="end" font-family="sans-serif" font-size="9.67741935483871" opacity="1" fill="#000000">
30.0
</text>
<polyline fill="none" opacity="1" stroke="#000000" stroke-width="1" points="34,319 39,319 "/>
<text x="30" y="205" dy="0.5ex" text-anchor="end" font-family="sans-serif" font-size="9.67741935483871" opacity="1" fill="#000000">
35.0
</text>
<polyline fill="none" opacity="1" stroke="#000000" stroke-width="1" points="34,205 39,205 "/>
<text x="30" y="91" dy="0.5ex" text-anchor="end" font-family="sans-serif" font-size="9.67741935483871" opacity="1" fill="#000000">
40.0
</text>
<polyline fill="none" opacity="1" stroke="#000000" stroke-width="1" points="34,91 39,91 "/>
<polyline fill="none" opacity="1" stroke="#000000" stroke-width="1" points="40,728 1023,728 "/>
<text x="112" y="738" dy="0.76em" text-anchor="middle" font-family="sans-serif" font-size="9.67741935483871" opacity="1" fill="#000000">
2.0
</text>
<polyline fill="none" opacity="1" stroke="#000000" stroke-width="1" points="112,728 112,733 "/>
<text x="203" y="738" dy="0.76em" text-anchor="middle" font-family="sans-serif" font-size="9.67741935483871" opacity="1" fill="#000000">
2.5
</text>
<polyline fill="none" opacity="1" stroke="#000000" stroke-width="1" points="203,728 203,733 "/>
<text x="294" y="738" dy="0.76em" text-anchor="middle" font-family="sans-serif" font-size="9.67741935483871" opacity="1" fill="#000000">
3.0
</text>
<polyline fill="none" opacity="1" stroke="#000000" stroke-width="1" points="294,728 294,733 "/>
<text x="385" y="738" dy="0.76em" text-anchor="middle" font-family="sans-serif" font-size="9.67741935483871" opacity="1" fill="#000000">
3.5
</text>
<polyline fill="none" opacity="1" stroke="#000000" stroke-width="1" points="385,728 385,733 "/>
<text x="476" y="738" dy="0.76em" text-anchor="middle" font-family="sans-serif" font-size="9.67741935483871" opacity="1" fill="#000000">
4.0
</text>
<polyline fill="none" opacity="1" stroke="#000000" stroke-width="1" points="476,728 476,733 "/>
<text x="567" y="738" dy="0.76em" text-anchor="middle" font-family="sans-serif" font-size="9.67741935483871" opacity="1" fill="#000000">
4.5
</text>
<polyline fill="none" opacity="1" stroke="#000000" stroke-width="1" points="567,728 567,733 "/>
<text x="658" y="738" dy="0.76em" text-anchor="middle" font-family="sans-serif" font-size="9.67741935483871" opacity="1" fill="#000000">
5.0
</text>
<polyline fill="none" opacity="1" stroke="#000000" stroke-width="1" points="658,728 658,733 "/>
<text x="749" y="738" dy="0.76em" text-anchor="middle" font-family="sans-serif" font-size="9.67741935483871" opacity="1" fill="#000000">
5.5
</text>
<polyline fill="none" opacity="1" stroke="#000000" stroke-width="1" points="749,728 749,733 "/>
<text x="840" y="738" dy="0.76em" text-anchor="middle" font-family="sans-serif" font-size="9.67741935483871" opacity="1" fill="#000000">
6.0
</text>
<polyline fill="none" opacity="1" stroke="#000000" stroke-width="1" points="840,728 840,733 "/>
<text x="931" y="738" dy="0.76em" text-anchor="middle" font-family="sans-serif" font-size="9.67741935483871" opacity="1" fill="#000000">
6.5
</text>
<polyline fill="none" opacity="1" stroke="#000000" stroke-width="1" points="931,728 931,733 "/>
<text x="1023" y="738" dy="0.76em" text-anchor="middle" font-family="sans-serif" font-size="9.67741935483871" opacity="1" fill="#000000">
7.0
</text>
<polyline fill="none" opacity="1" stroke="#000000" stroke-width="1" points="1023,728 1023,733 "/>
<circle cx="76" cy="341" r="3" opacity="1" fill="none" stroke="#000000" stroke-width="1"/>
<circle cx="76" cy="341" r="3" opacity="1" fill="none" stroke="#000000" stroke-width="1"/>
<circle cx="112" cy="296" r="3" opacity="1" fill="none" stroke="#000000" stroke-width="1"/>
<circle cx="112" cy="319" r="3" opacity="1" fill="none" stroke="#000000" stroke-width="1"/>
<circle cx="258" cy="409" r="3" opacity="1" fill="none" stroke="#000000" stroke-width="1"/>
<circle cx="258" cy="409" r="3" opacity="1" fill="none" stroke="#000000" stroke-width="1"/>
<circle cx="313" cy="387" r="3" opacity="1" fill="none" stroke="#000000" stroke-width="1"/>
<circle cx="76" cy="409" r="3" opacity="1" fill="none" stroke="#000000" stroke-width="1"/>
<circle cx="76" cy="432" r="3" opacity="1" fill="none" stroke="#000000" stroke-width="1"/>
<circle cx="112" cy="364" r="3" opacity="1" fill="none" stroke="#000000" stroke-width="1"/>
<circle cx="112" cy="387" r="3" opacity="1" fill="none" stroke="#000000" stroke-width="1"/>
<circle cx="258" cy="432" r="3" opacity="1" fill="none" stroke="#000000" stroke-width="1"/>
<circle cx="258" cy="432" r="3" opacity="1" fill="none" stroke="#000000" stroke-width="1"/>
<circle cx="313" cy="432" r="3" opacity="1" fill="none" stroke="#000000" stroke-width="1"/>
<circle cx="313" cy="432" r="3" opacity="1" fill="none" stroke="#000000" stroke-width="1"/>
<circle cx="258" cy="455" r="3" opacity="1" fill="none" stroke="#000000" stroke-width="1"/>
<circle cx="313" cy="432" r="3" opacity="1" fill="none" stroke="#000000" stroke-width="1"/>
<circle cx="513" cy="478" r="3" opacity="1" fill="none" stroke="#000000" stroke-width="1"/>
<circle cx="713" cy="546" r="3" opacity="1" fill="none" stroke="#000000" stroke-width="1"/>
<circle cx="713" cy="659" r="3" opacity="1" fill="none" stroke="#000000" stroke-width="1"/>
<circle cx="713" cy="546" r="3" opacity="1" fill="none" stroke="#000000" stroke-width="1"/>
<circle cx="786" cy="614" r="3" opacity="1" fill="none" stroke="#000000" stroke-width="1"/>
<circle cx="840" cy="614" r="3" opacity="1" fill="none" stroke="#000000" stroke-width="1"/>
<circle cx="786" cy="409" r="3" opacity="1" fill="none" stroke="#000000" stroke-width="1"/>
<circle cx="786" cy="478" r="3" opacity="1" fill="none" stroke="#000000" stroke-width="1"/>
<circle cx="877" cy="409" r="3" opacity="1" fill="none" stroke="#000000" stroke-width="1"/>
<circle cx="877" cy="432" r="3" opacity="1" fill="none" stroke="#000000" stroke-width="1"/>
<circle cx="1023" cy="455" r="3" opacity="1" fill="none" stroke="#000000" stroke-width="1"/>
<circle cx="713" cy="568" r="3" opacity="1" fill="none" stroke="#000000" stroke-width="1"/>
<circle cx="713" cy="682" r="3" opacity="1" fill="none" stroke="#000000" stroke-width="1"/>
<circle cx="786" cy="659" r="3" opacity="1" fill="none" stroke="#000000" stroke-width="1"/>
<circle cx="931" cy="614" r="3" opacity="1" fill="none" stroke="#000000" stroke-width="1"/>
<circle cx="185" cy="387" r="3" opacity="1" fill="none" stroke="#000000" stroke-width="1"/>
<circle cx="185" cy="319" r="3" opacity="1" fill="none" stroke="#000000" stroke-width="1"/>
<circle cx="313" cy="409" r="3" opacity="1" fill="none" stroke="#000000" stroke-width="1"/>
<circle cx="385" cy="341" r="3" opacity="1" fill="none" stroke="#000000" stroke-width="1"/>
<circle cx="404" cy="409" r="3" opacity="1" fill="none" stroke="#000000" stroke-width="1"/>
<circle cx="185" cy="455" r="3" opacity="1" fill="none" stroke="#000000" stroke-width="1"/>
<circle cx="294" cy="455" r="3" opacity="1" fill="none" stroke="#000000" stroke-width="1"/>
<circle cx="349" cy="500" r="3" opacity="1" fill="none" stroke="#000000" stroke-width="1"/>
<circle cx="349" cy="500" r="3" opacity="1" fill="none" stroke="#000000" stroke-width="1"/>
<circle cx="349" cy="455" r="3" opacity="1" fill="none" stroke="#000000" stroke-width="1"/>
<circle cx="349" cy="455" r="3" opacity="1" fill="none" stroke="#000000" stroke-width="1"/>
<circle cx="349" cy="614" r="3" opacity="1" fill="none" stroke="#000000" stroke-width="1"/>
<circle cx="440" cy="500" r="3" opacity="1" fill="none" stroke="#000000" stroke-width="1"/>
<circle cx="440" cy="523" r="3" opacity="1" fill="none" stroke="#000000" stroke-width="1"/>
<circle cx="440" cy="478" r="3" opacity="1" fill="none" stroke="#000000" stroke-width="1"/>
<circle cx="476" cy="478" r="3" opacity="1" fill="none" stroke="#000000" stroke-width="1"/>
<circle cx="422" cy="568" r="3" opacity="1" fill="none" stroke="#000000" stroke-width="1"/>
<circle cx="422" cy="591" r="3" opacity="1" fill="none" stroke="#000000" stroke-width="1"/>
<circle cx="458" cy="614" r="3" opacity="1" fill="none" stroke="#000000" stroke-width="1"/>
<circle cx="458" cy="614" r="3" opacity="1" fill="none" stroke="#000000" stroke-width="1"/>
<circle cx="604" cy="568" r="3" opacity="1" fill="none" stroke="#000000" stroke-width="1"/>
<circle cx="604" cy="568" r="3" opacity="1" fill="none" stroke="#000000" stroke-width="1"/>
<circle cx="604" cy="727" r="3" opacity="1" fill="none" stroke="#000000" stroke-width="1"/>
<circle cx="695" cy="614" r="3" opacity="1" fill="none" stroke="#000000" stroke-width="1"/>
<circle cx="695" cy="659" r="3" opacity="1" fill="none" stroke="#000000" stroke-width="1"/>
<circle cx="458" cy="614" r="3" opacity="1" fill="none" stroke="#000000" stroke-width="1"/>
<circle cx="604" cy="614" r="3" opacity="1" fill="none" stroke="#000000" stroke-width="1"/>
<circle cx="604" cy="727" r="3" opacity="1" fill="none" stroke="#000000" stroke-width="1"/>
<circle cx="604" cy="614" r="3" opacity="1" fill="none" stroke="#000000" stroke-width="1"/>
<circle cx="695" cy="637" r="3" opacity="1" fill="none" stroke="#000000" stroke-width="1"/>
<circle cx="786" cy="591" r="3" opacity="1" fill="none" stroke="#000000" stroke-width="1"/>
<circle cx="822" cy="659" r="3" opacity="1" fill="none" stroke="#000000" stroke-width="1"/>
<circle cx="604" cy="637" r="3" opacity="1" fill="none" stroke="#000000" stroke-width="1"/>
<circle cx="604" cy="727" r="3" opacity="1" fill="none" stroke="#000000" stroke-width="1"/>
<circle cx="604" cy="614" r="3" opacity="1" fill="none" stroke="#000000" stroke-width="1"/>
<circle cx="604" cy="614" r="3" opacity="1" fill="none" stroke="#000000" stroke-width="1"/>
<circle cx="604" cy="637" r="3" opacity="1" fill="none" stroke="#000000" stroke-width="1"/>
<circle cx="604" cy="727" r="3" opacity="1" fill="none" stroke="#000000" stroke-width="1"/>
<circle cx="695" cy="659" r="3" opacity="1" fill="none" stroke="#000000" stroke-width="1"/>
<circle cx="695" cy="637" r="3" opacity="1" fill="none" stroke="#000000" stroke-width="1"/>
<circle cx="786" cy="614" r="3" opacity="1" fill="none" stroke="#000000" stroke-width="1"/>
<circle cx="822" cy="659" r="3" opacity="1" fill="none" stroke="#000000" stroke-width="1"/>
<circle cx="586" cy="614" r="3" opacity="1" fill="none" stroke="#000000" stroke-width="1"/>
<circle cx="731" cy="614" r="3" opacity="1" fill="none" stroke="#000000" stroke-width="1"/>
<circle cx="731" cy="591" r="3" opacity="1" fill="none" stroke="#000000" stroke-width="1"/>
<circle cx="476" cy="614" r="3" opacity="1" fill="none" stroke="#000000" stroke-width="1"/>
<circle cx="476" cy="568" r="3" opacity="1" fill="none" stroke="#000000" stroke-width="1"/>
<circle cx="476" cy="614" r="3" opacity="1" fill="none" stroke="#000000" stroke-width="1"/>
<circle cx="476" cy="568" r="3" opacity="1" fill="none" stroke="#000000" stroke-width="1"/>
<circle cx="586" cy="568" r="3" opacity="1" fill="none" stroke="#000000" stroke-width="1"/>
<circle cx="658" cy="614" r="3" opacity="1" fill="none" stroke="#000000" stroke-width="1"/>
<circle cx="513" cy="614" r="3" opacity="1" fill="none" stroke="#000000" stroke-width="1"/>
<circle cx="513" cy="614" r="3" opacity="1" fill="none" stroke="#000000" stroke-width="1"/>
<circle cx="586" cy="637" r="3" opacity="1" fill="none" stroke="#000000" stroke-width="1"/>
<circle cx="586" cy="637" r="3" opacity="1" fill="none" stroke="#000000" stroke-width="1"/>
<circle cx="586" cy="614" r="3" opacity="1" fill="none" stroke="#000000" stroke-width="1"/>
<circle cx="731" cy="659" r="3" opacity="1" fill="none" stroke="#000000" stroke-width="1"/>
<circle cx="731" cy="614" r="3" opacity="1" fill="none" stroke="#000000" stroke-width="1"/>
<circle cx="440" cy="409" r="3" opacity="1" fill="none" stroke="#000000" stroke-width="1"/>
<circle cx="440" cy="432" r="3" opacity="1" fill="none" stroke="#000000" stroke-width="1"/>
<circle cx="476" cy="409" r="3" opacity="1" fill="none" stroke="#000000" stroke-width="1"/>
<circle cx="476" cy="455" r="3" opacity="1" fill="none" stroke="#000000" stroke-width="1"/>
<circle cx="586" cy="523" r="3" opacity="1" fill="none" stroke="#000000" stroke-width="1"/>
<circle cx="586" cy="500" r="3" opacity="1" fill="none" stroke="#000000" stroke-width="1"/>
<circle cx="586" cy="478" r="3" opacity="1" fill="none" stroke="#000000" stroke-width="1"/>
<circle cx="586" cy="500" r="3" opacity="1" fill="none" stroke="#000000" stroke-width="1"/>
<circle cx="731" cy="546" r="3" opacity="1" fill="none" stroke="#000000" stroke-width="1"/>
<circle cx="40" cy="250" r="3" opacity="1" fill="none" stroke="#000000" stroke-width="1"/>
<circle cx="40" cy="273" r="3" opacity="1" fill="none" stroke="#000000" stroke-width="1"/>
<circle cx="40" cy="273" r="3" opacity="1" fill="none" stroke="#000000" stroke-width="1"/>
<circle cx="40" cy="341" r="3" opacity="1" fill="none" stroke="#000000" stroke-width="1"/>
<circle cx="40" cy="273" r="3" opacity="1" fill="none" stroke="#000000" stroke-width="1"/>
<circle cx="76" cy="228" r="3" opacity="1" fill="none" stroke="#000000" stroke-width="1"/>
<circle cx="76" cy="182" r="3" opacity="1" fill="none" stroke="#000000" stroke-width="1"/>
<circle cx="76" cy="182" r="3" opacity="1" fill="none" stroke="#000000" stroke-width="1"/>
<circle cx="112" cy="341" r="3" opacity="1" fill="none" stroke="#000000" stroke-width="1"/>
<circle cx="185" cy="409" r="3" opacity="1" fill="none" stroke="#000000" stroke-width="1"/>
<circle cx="185" cy="387" r="3" opacity="1" fill="none" stroke="#000000" stroke-width="1"/>
<circle cx="185" cy="319" r="3" opacity="1" fill="none" stroke="#000000" stroke-width="1"/>
<circle cx="185" cy="296" r="3" opacity="1" fill="none" stroke="#000000" stroke-width="1"/>
<circle cx="203" cy="409" r="3" opacity="1" fill="none" stroke="#000000" stroke-width="1"/>
<circle cx="203" cy="409" r="3" opacity="1" fill="none" stroke="#000000" stroke-width="1"/>
<circle cx="349" cy="364" r="3" opacity="1" fill="none" stroke="#000000" stroke-width="1"/>
<circle cx="112" cy="409" r="3" opacity="1" fill="none" stroke="#000000" stroke-width="1"/>
<circle cx="112" cy="341" r="3" opacity="1" fill="none" stroke="#000000" stroke-width="1"/>
<circle cx="112" cy="364" r="3" opacity="1" fill="none" stroke="#000000" stroke-width="1"/>
<circle cx="112" cy="387" r="3" opacity="1" fill="none" stroke="#000000" stroke-width="1"/>
<circle cx="240" cy="455" r="3" opacity="1" fill="none" stroke="#000000" stroke-width="1"/>
<circle cx="240" cy="455" r="3" opacity="1" fill="none" stroke="#000000" stroke-width="1"/>
<circle cx="240" cy="455" r="3" opacity="1" fill="none" stroke="#000000" stroke-width="1"/>
<circle cx="294" cy="500" r="3" opacity="1" fill="none" stroke="#000000" stroke-width="1"/>
<circle cx="422" cy="568" r="3" opacity="1" fill="none" stroke="#000000" stroke-width="1"/>
<circle cx="476" cy="546" r="3" opacity="1" fill="none" stroke="#000000" stroke-width="1"/>
<circle cx="604" cy="614" r="3" opacity="1" fill="none" stroke="#000000" stroke-width="1"/>
<circle cx="604" cy="727" r="3" opacity="1" fill="none" stroke="#000000" stroke-width="1"/>
<circle cx="604" cy="568" r="3" opacity="1" fill="none" stroke="#000000" stroke-width="1"/>
<circle cx="786" cy="591" r="3" opacity="1" fill="none" stroke="#000000" stroke-width="1"/>
<circle cx="859" cy="682" r="3" opacity="1" fill="none" stroke="#000000" stroke-width="1"/>
<circle cx="476" cy="659" r="3" opacity="1" fill="none" stroke="#000000" stroke-width="1"/>
<circle cx="513" cy="591" r="3" opacity="1" fill="none" stroke="#000000" stroke-width="1"/>
<circle cx="549" cy="591" r="3" opacity="1" fill="none" stroke="#000000" stroke-width="1"/>
<circle cx="586" cy="659" r="3" opacity="1" fill="none" stroke="#000000" stroke-width="1"/>
<circle cx="731" cy="614" r="3" opacity="1" fill="none" stroke="#000000" stroke-width="1"/>
<circle cx="731" cy="637" r="3" opacity="1" fill="none" stroke="#000000" stroke-width="1"/>
<circle cx="731" cy="591" r="3" opacity="1" fill="none" stroke="#000000" stroke-width="1"/>
<circle cx="476" cy="614" r="3" opacity="1" fill="none" stroke="#000000" stroke-width="1"/>
<circle cx="476" cy="568" r="3" opacity="1" fill="none" stroke="#000000" stroke-width="1"/>
<circle cx="586" cy="568" r="3" opacity="1" fill="none" stroke="#000000" stroke-width="1"/>
<circle cx="658" cy="614" r="3" opacity="1" fill="none" stroke="#000000" stroke-width="1"/>
<circle cx="185" cy="341" r="3" opacity="1" fill="none" stroke="#000000" stroke-width="1"/>
<circle cx="185" cy="387" r="3" opacity="1" fill="none" stroke="#000000" stroke-width="1"/>
<circle cx="203" cy="296" r="3" opacity="1" fill="none" stroke="#000000" stroke-width="1"/>
<circle cx="203" cy="273" r="3" opacity="1" fill="none" stroke="#000000" stroke-width="1"/>
<circle cx="385" cy="387" r="3" opacity="1" fill="none" stroke="#000000" stroke-width="1"/>
<circle cx="385" cy="409" r="3" opacity="1" fill="none" stroke="#000000" stroke-width="1"/>
<circle cx="294" cy="409" r="3" opacity="1" fill="none" stroke="#000000" stroke-width="1"/>
<circle cx="294" cy="432" r="3" opacity="1" fill="none" stroke="#000000" stroke-width="1"/>
<circle cx="385" cy="432" r="3" opacity="1" fill="none" stroke="#000000" stroke-width="1"/>
<circle cx="349" cy="614" r="3" opacity="1" fill="none" stroke="#000000" stroke-width="1"/>
<circle cx="349" cy="614" r="3" opacity="1" fill="none" stroke="#000000" stroke-width="1"/>
<circle cx="476" cy="546" r="3" opacity="1" fill="none" stroke="#000000" stroke-width="1"/>
<circle cx="768" cy="591" r="3" opacity="1" fill="none" stroke="#000000" stroke-width="1"/>
<circle cx="313" cy="409" r="3" opacity="1" fill="none" stroke="#000000" stroke-width="1"/>
<circle cx="440" cy="409" r="3" opacity="1" fill="none" stroke="#000000" stroke-width="1"/>
<circle cx="440" cy="387" r="3" opacity="1" fill="none" stroke="#000000" stroke-width="1"/>
<circle cx="440" cy="364" r="3" opacity="1" fill="none" stroke="#000000" stroke-width="1"/>
<circle cx="713" cy="432" r="3" opacity="1" fill="none" stroke="#000000" stroke-width="1"/>
<circle cx="203" cy="432" r="3" opacity="1" fill="none" stroke="#000000" stroke-width="1"/>
<circle cx="203" cy="455" r="3" opacity="1" fill="none" stroke="#000000" stroke-width="1"/>
<circle cx="203" cy="387" r="3" opacity="1" fill="none" stroke="#000000" stroke-width="1"/>
<circle cx="203" cy="432" r="3" opacity="1" fill="none" stroke="#000000" stroke-width="1"/>
<circle cx="203" cy="409" r="3" opacity="1" fill="none" stroke="#000000" stroke-width="1"/>
<circle cx="203" cy="478" r="3" opacity="1" fill="none" stroke="#000000" stroke-width="1"/>
<circle cx="149" cy="409" r="3" opacity="1" fill="none" stroke="#000000" stroke-width="1"/>
<circle cx="149" cy="409" r="3" opacity="1" fill="none" stroke="#000000" stroke-width="1"/>
<circle cx="203" cy="409" r="3" opacity="1" fill="none" stroke="#000000" stroke-width="1"/>
<circle cx="203" cy="409" r="3" opacity="1" fill="none" stroke="#000000" stroke-width="1"/>
<circle cx="203" cy="432" r="3" opacity="1" fill="none" stroke="#000000" stroke-width="1"/>
<circle cx="203" cy="387" r="3" opacity="1" fill="none" stroke="#000000" stroke-width="1"/>
<circle cx="203" cy="432" r="3" opacity="1" fill="none" stroke="#000000" stroke-width="1"/>
<circle cx="203" cy="387" r="3" opacity="1" fill="none" stroke="#000000" stroke-width="1"/>
<circle cx="240" cy="546" r="3" opacity="1" fill="none" stroke="#000000" stroke-width="1"/>
<circle cx="240" cy="546" r="3" opacity="1" fill="none" stroke="#000000" stroke-width="1"/>
<circle cx="367" cy="568" r="3" opacity="1" fill="none" stroke="#000000" stroke-width="1"/>
<circle cx="367" cy="614" r="3" opacity="1" fill="none" stroke="#000000" stroke-width="1"/>
<circle cx="476" cy="546" r="3" opacity="1" fill="none" stroke="#000000" stroke-width="1"/>
<circle cx="604" cy="614" r="3" opacity="1" fill="none" stroke="#000000" stroke-width="1"/>
<circle cx="149" cy="341" r="3" opacity="1" fill="none" stroke="#000000" stroke-width="1"/>
<circle cx="149" cy="387" r="3" opacity="1" fill="none" stroke="#000000" stroke-width="1"/>
<circle cx="185" cy="296" r="3" opacity="1" fill="none" stroke="#000000" stroke-width="1"/>
<circle cx="185" cy="296" r="3" opacity="1" fill="none" stroke="#000000" stroke-width="1"/>
<circle cx="294" cy="409" r="3" opacity="1" fill="none" stroke="#000000" stroke-width="1"/>
<circle cx="294" cy="409" r="3" opacity="1" fill="none" stroke="#000000" stroke-width="1"/>
<circle cx="385" cy="364" r="3" opacity="1" fill="none" stroke="#000000" stroke-width="1"/>
<circle cx="149" cy="387" r="3" opacity="1" fill="none" stroke="#000000" stroke-width="1"/>
<circle cx="149" cy="341" r="3" opacity="1" fill="none" stroke="#000000" stroke-width="1"/>
<circle cx="185" cy="296" r="3" opacity="1" fill="none" stroke="#000000" stroke-width="1"/>
<circle cx="185" cy="296" r="3" opacity="1" fill="none" stroke="#000000" stroke-width="1"/>
<circle cx="294" cy="409" r="3" opacity="1" fill="none" stroke="#000000" stroke-width="1"/>
<circle cx="294" cy="409" r="3" opacity="1" fill="none" stroke="#000000" stroke-width="1"/>
<circle cx="349" cy="387" r="3" opacity="1" fill="none" stroke="#000000" stroke-width="1"/>
<circle cx="76" cy="319" r="3" opacity="1" fill="none" stroke="#000000" stroke-width="1"/>
<circle cx="76" cy="250" r="3" opacity="1" fill="none" stroke="#000000" stroke-width="1"/>
<circle cx="76" cy="205" r="3" opacity="1" fill="none" stroke="#000000" stroke-width="1"/>
<circle cx="76" cy="160" r="3" opacity="1" fill="none" stroke="#000000" stroke-width="1"/>
<circle cx="76" cy="205" r="3" opacity="1" fill="none" stroke="#000000" stroke-width="1"/>
<circle cx="604" cy="659" r="3" opacity="1" fill="none" stroke="#000000" stroke-width="1"/>
<circle cx="786" cy="591" r="3" opacity="1" fill="none" stroke="#000000" stroke-width="1"/>
<circle cx="240" cy="546" r="3" opacity="1" fill="none" stroke="#000000" stroke-width="1"/>
<circle cx="240" cy="546" r="3" opacity="1" fill="none" stroke="#000000" stroke-width="1"/>
<circle cx="240" cy="500" r="3" opacity="1" fill="none" stroke="#000000" stroke-width="1"/>
<circle cx="367" cy="614" r="3" opacity="1" fill="none" stroke="#000000" stroke-width="1"/>
<circle cx="367" cy="568" r="3" opacity="1" fill="none" stroke="#000000" stroke-width="1"/>
<circle cx="476" cy="591" r="3" opacity="1" fill="none" stroke="#000000" stroke-width="1"/>
<circle cx="476" cy="546" r="3" opacity="1" fill="none" stroke="#000000" stroke-width="1"/>
<circle cx="112" cy="341" r="3" opacity="1" fill="none" stroke="#000000" stroke-width="1"/>
<circle cx="112" cy="409" r="3" opacity="1" fill="none" stroke="#000000" stroke-width="1"/>
<circle cx="112" cy="341" r="3" opacity="1" fill="none" stroke="#000000" stroke-width="1"/>
<circle cx="112" cy="341" r="3" opacity="1" fill="none" stroke="#000000" stroke-width="1"/>
<circle cx="258" cy="455" r="3" opacity="1" fill="none" stroke="#000000" stroke-width="1"/>
<circle cx="94" cy="0" r="3" opacity="1" fill="none" stroke="#000000" stroke-width="1"/>
<circle cx="112" cy="341" r="3" opacity="1" fill="none" stroke="#000000" stroke-width="1"/>
<circle cx="112" cy="409" r="3" opacity="1" fill="none" stroke="#000000" stroke-width="1"/>
<circle cx="112" cy="341" r="3" opacity="1" fill="none" stroke="#000000" stroke-width="1"/>
<circle cx="112" cy="341" r="3" opacity="1" fill="none" stroke="#000000" stroke-width="1"/>
<circle cx="203" cy="341" r="3" opacity="1" fill="none" stroke="#000000" stroke-width="1"/>
<circle cx="203" cy="341" r="3" opacity="1" fill="none" stroke="#000000" stroke-width="1"/>
<circle cx="258" cy="478" r="3" opacity="1" fill="none" stroke="#000000" stroke-width="1"/>
<circle cx="258" cy="455" r="3" opacity="1" fill="none" stroke="#000000" stroke-width="1"/>
<circle cx="94" cy="0" r="3" opacity="1" fill="none" stroke="#000000" stroke-width="1"/>
<circle cx="94" cy="69" r="3" opacity="1" fill="none" stroke="#000000" stroke-width="1"/>
<circle cx="112" cy="341" r="3" opacity="1" fill="none" stroke="#000000" stroke-width="1"/>
<circle cx="112" cy="409" r="3" opacity="1" fill="none" stroke="#000000" stroke-width="1"/>
<circle cx="203" cy="364" r="3" opacity="1" fill="none" stroke="#000000" stroke-width="1"/>
<circle cx="203" cy="341" r="3" opacity="1" fill="none" stroke="#000000" stroke-width="1"/>
<circle cx="76" cy="341" r="3" opacity="1" fill="none" stroke="#000000" stroke-width="1"/>
<circle cx="76" cy="341" r="3" opacity="1" fill="none" stroke="#000000" stroke-width="1"/>
<circle cx="112" cy="364" r="3" opacity="1" fill="none" stroke="#000000" stroke-width="1"/>
<circle cx="112" cy="341" r="3" opacity="1" fill="none" stroke="#000000" stroke-width="1"/>
<circle cx="258" cy="409" r="3" opacity="1" fill="none" stroke="#000000" stroke-width="1"/>
<circle cx="258" cy="409" r="3" opacity="1" fill="none" stroke="#000000" stroke-width="1"/>
<circle cx="404" cy="409" r="3" opacity="1" fill="none" stroke="#000000" stroke-width="1"/>
</svg>
