<svg width="1024" height="768" viewBox="0 0 1024 768" xmlns="http://www.w3.org/2000/svg">
<rect x="0" y="0" width="1024" height="768" opacity="1" fill="#FFFFFF" stroke="none"/>
<line opacity="0.1" stroke="#000000" stroke-width="1" x1="87" y1="685" x2="87" y2="5"/>
<line opacity="0.1" stroke="#000000" stroke-width="1" x1="104" y1="685" x2="104" y2="5"/>
<line opacity="0.1" stroke="#000000" stroke-width="1" x1="120" y1="685" x2="120" y2="5"/>
<line opacity="0.1" stroke="#000000" stroke-width="1" x1="137" y1="685" x2="137" y2="5"/>
<line opacity="0.1" stroke="#000000" stroke-width="1" x1="153" y1="685" x2="153" y2="5"/>
<line opacity="0.1" stroke="#000000" stroke-width="1" x1="170" y1="685" x2="170" y2="5"/>
<line opacity="0.1" stroke="#000000" stroke-width="1" x1="186" y1="685" x2="186" y2="5"/>
<line opacity="0.1" stroke="#000000" stroke-width="1" x1="203" y1="685" x2="203" y2="5"/>
<line opacity="0.1" stroke="#000000" stroke-width="1" x1="219" y1="685" x2="219" y2="5"/>
<line opacity="0.1" stroke="#000000" stroke-width="1" x1="236" y1="685" x2="236" y2="5"/>
<line opacity="0.1" stroke="#000000" stroke-width="1" x1="252" y1="685" x2="252" y2="5"/>
<line opacity="0.1" stroke="#000000" stroke-width="1" x1="269" y1="685" x2="269" y2="5"/>
<line opacity="0.1" stroke="#000000" stroke-width="1" x1="285" y1="685" x2="285" y2="5"/>
<line opacity="0.1" stroke="#000000" stroke-width="1" x1="302" y1="685" x2="302" y2="5"/>
<line opacity="0.1" stroke="#000000" stroke-width="1" x1="318" y1="685" x2="318" y2="5"/>
<line opacity="0.1" stroke="#000000" stroke-width="1" x1="335" y1="685" x2="335" y2="5"/>
<line opacity="0.1" stroke="#000000" stroke-width="1" x1="351" y1="685" x2="351" y2="5"/>
<line opacity="0.1" stroke="#000000" stroke-width="1" x1="368" y1="685" x2="368" y2="5"/>
<line opacity="0.1" stroke="#000000" stroke-width="1" x1="384" y1="685" x2="384" y2="5"/>
<line opacity="0.1" stroke="#000000" stroke-width="1" x1="401" y1="685" x2="401" y2="5"/>
<line opacity="0.1" stroke="#000000" stroke-width="1" x1="417" y1="685" x2="417" y2="5"/>
<line opacity="0.1" stroke="#000000" stroke-width="1" x1="434" y1="685" x2="434" y2="5"/>
<line opacity="0.1" stroke="#000000" stroke-width="1" x1="450" y1="685" x2="450" y2="5"/>
<line opacity="0.1" stroke="#000000" stroke-width="1" x1="467" y1="685" x2="467" y2="5"/>
<line opacity="0.1" stroke="#000000" stroke-width="1" x1="483" y1="685" x2="483" y2="5"/>
<line opacity="0.1" stroke="#000000" stroke-width="1" x1="500" y1="685" x2="500" y2="5"/>
<line opacity="0.1" stroke="#000000" stroke-width="1" x1="516" y1="685" x2="516" y2="5"/>
<line opacity="0.1" stroke="#000000" stroke-width="1" x1="533" y1="685" x2="533" y2="5"/>
<line opacity="0.1" stroke="#000000" stroke-width="1" x1="550" y1="685" x2="550" y2="5"/>
<line opacity="0.1" stroke="#000000" stroke-width="1" x1="566" y1="685" x2="566" y2="5"/>
<line opacity="0.1" stroke="#000000" stroke-width="1" x1="583" y1="685" x2="583" y2="5"/>
<line opacity="0.1" stroke="#000000" stroke-width="1" x1="599" y1="685" x2="599" y2="5"/>
<line opacity="0.1" stroke="#000000" stroke-width="1" x1="616" y1="685" x2="616" y2="5"/>
<line opacity="0.1" stroke="#000000" stroke-width="1" x1="632" y1="685" x2="632" y2="5"/>
<line opacity="0.1" stroke="#000000" stroke-width="1" x1="649" y1="685" x2="649" y2="5"/>
<line opacity="0.1" stroke="#000000" stroke-width="1" x1="665" y1="685" x2="665" y2="5"/>
<line opacity="0.1" stroke="#000000" stroke-width="1" x1="682" y1="685" x2="682" y2="5"/>
<line opacity="0.1" stroke="#000000" stroke-width="1" x1="698" y1="685" x2="698" y2="5"/>
<line opacity="0.1" stroke="#000000" stroke-width="1" x1="715" y1="685" x2="715" y2="5"/>
<line opacity="0.1" stroke="#000000" stroke-width="1" x1="731" y1="685" x2="731" y2="5"/>
<line opacity="0.1" stroke="#000000" stroke-width="1" x1="748" y1="685" x2="748" y2="5"/>
<line opacity="0.1" stroke="#000000" stroke-width="1" x1="764" y1="685" x2="764" y2="5"/>
<line opacity="0.1" stroke="#000000" stroke-width="1" x1="781" y1="685" x2="781" y2="5"/>
<line opacity="0.1" stroke="#000000" stroke-width="1" x1="797" y1="685" x2="797" y2="5"/>
<line opacity="0.1" stroke="#000000" stroke-width="1" x1="814" y1="685" x2="814" y2="5"/>
<line opacity="0.1" stroke="#000000" stroke-width="1" x1="830" y1="685" x2="830" y2="5"/>
<line opacity="0.1" stroke="#000000" stroke-width="1" x1="847" y1="685" x2="847" y2="5"/>
<line opacity="0.1" stroke="#000000" stroke-width="1" x1="863" y1="685" x2="863" y2="5"/>
<line opacity="0.1" stroke="#000000" stroke-width="1" x1="880" y1="685" x2="880" y2="5"/>
<line opacity="0.1" stroke="#000000" stroke-width="1" x1="896" y1="685" x2="896" y2="5"/>
<line opacity="0.1" stroke="#000000" stroke-width="1" x1="913" y1="685" x2="913" y2="5"/>
<line opacity="0.1" stroke="#000000" stroke-width="1" x1="929" y1="685" x2="929" y2="5"/>
<line opacity="0.1" stroke="#000000" stroke-width="1" x1="946" y1="685" x2="946" y2="5"/>
<line opacity="0.1" stroke="#000000" stroke-width="1" x1="962" y1="685" x2="962" y2="5"/>
<line opacity="0.1" stroke="#000000" stroke-width="1" x1="979" y1="685" x2="979" y2="5"/>
<line opacity="0.1" stroke="#000000" stroke-width="1" x1="995" y1="685" x2="995" y2="5"/>
<line opacity="0.1" stroke="#000000" stroke-width="1" x1="1012" y1="685" x2="1012" y2="5"/>
<line opacity="0.1" stroke="#000000" stroke-width="1" x1="82" y1="679" x2="1018" y2="679"/>
<line opacity="0.1" stroke="#000000" stroke-width="1" x1="82" y1="669" x2="1018" y2="669"/>
<line opacity="0.1" stroke="#000000" stroke-width="1" x1="82" y1="659" x2="1018" y2="659"/>
<line opacity="0.1" stroke="#000000" stroke-width="1" x1="82" y1="649" x2="1018" y2="649"/>
<line opacity="0.1" stroke="#000000" stroke-width="1" x1="82" y1="639" x2="1018" y2="639"/>
<line opacity="0.1" stroke="#000000" stroke-width="1" x1="82" y1="629" x2="1018" y2="629"/>
<line opacity="0.1" stroke="#000000" stroke-width="1" x1="82" y1="619" x2="1018" y2="619"/>
<line opacity="0.1" stroke="#000000" stroke-width="1" x1="82" y1="609" x2="1018" y2="609"/>
<line opacity="0.1" stroke="#000000" stroke-width="1" x1="82" y1="598" x2="1018" y2="598"/>
<line opacity="0.1" stroke="#000000" stroke-width="1" x1="82" y1="588" x2="1018" y2="588"/>
<line opacity="0.1" stroke="#000000" stroke-width="1" x1="82" y1="578" x2="1018" y2="578"/>
<line opacity="0.1" stroke="#000000" stroke-width="1" x1="82" y1="568" x2="1018" y2="568"/>
<line opacity="0.1" stroke="#000000" stroke-width="1" x1="82" y1="558" x2="1018" y2="558"/>
<line opacity="0.1" stroke="#000000" stroke-width="1" x1="82" y1="548" x2="1018" y2="548"/>
<line opacity="0.1" stroke="#000000" stroke-width="1" x1="82" y1="538" x2="1018" y2="538"/>
<line opacity="0.1" stroke="#000000" stroke-width="1" x1="82" y1="528" x2="1018" y2="528"/>
<line opacity="0.1" stroke="#000000" stroke-width="1" x1="82" y1="518" x2="1018" y2="518"/>
<line opacity="0.1" stroke="#000000" stroke-width="1" x1="82" y1="507" x2="1018" y2="507"/>
<line opacity="0.1" stroke="#000000" stroke-width="1" x1="82" y1="497" x2="1018" y2="497"/>
<line opacity="0.1" stroke="#000000" stroke-width="1" x1="82" y1="487" x2="1018" y2="487"/>
<line opacity="0.1" stroke="#000000" stroke-width="1" x1="82" y1="477" x2="1018" y2="477"/>
<line opacity="0.1" stroke="#000000" stroke-width="1" x1="82" y1="467" x2="1018" y2="467"/>
<line opacity="0.1" stroke="#000000" stroke-width="1" x1="82" y1="457" x2="1018" y2="457"/>
<line opacity="0.1" stroke="#000000" stroke-width="1" x1="82" y1="447" x2="1018" y2="447"/>
<line opacity="0.1" stroke="#000000" stroke-width="1" x1="82" y1="437" x2="1018" y2="437"/>
<line opacity="0.1" stroke="#000000" stroke-width="1" x1="82" y1="426" x2="1018" y2="426"/>
<line opacity="0.1" stroke="#000000" stroke-width="1" x1="82" y1="416" x2="1018" y2="416"/>
<line opacity="0.1" stroke="#000000" stroke-width="1" x1="82" y1="406" x2="1018" y2="406"/>
<line opacity="0.1" stroke="#000000" stroke-width="1" x1="82" y1="396" x2="1018" y2="396"/>
<line opacity="0.1" stroke="#000000" stroke-width="1" x1="82" y1="386" x2="1018" y2="386"/>
<line opacity="0.1" stroke="#000000" stroke-width="1" x1="82" y1="376" x2="1018" y2="376"/>
<line opacity="0.1" stroke="#000000" stroke-width="1" x1="82" y1="366" x2="1018" y2="366"/>
<line opacity="0.1" stroke="#000000" stroke-width="1" x1="82" y1="356" x2="1018" y2="356"/>
<line opacity="0.1" stroke="#000000" stroke-width="1" x1="82" y1="345" x2="1018" y2="345"/>
<line opacity="0.1" stroke="#000000" stroke-width="1" x1="82" y1="335" x2="1018" y2="335"/>
<line opacity="0.1" stroke="#000000" stroke-width="1" x1="82" y1="325" x2="1018" y2="325"/>
<line opacity="0.1" stroke="#000000" stroke-width="1" x1="82" y1="315" x2="1018" y2="315"/>
<line opacity="0.1" stroke="#000000" stroke-width="1" x1="82" y1="305" x2="1018" y2="305"/>
<line opacity="0.1" stroke="#000000" stroke-width="1" x1="82" y1="295" x2="1018" y2="295"/>
<line opacity="0.1" stroke="#000000" stroke-width="1" x1="82" y1="285" x2="1018" y2="285"/>
<line opacity="0.1" stroke="#000000" stroke-width="1" x1="82" y1="275" x2="1018" y2="275"/>
<line opacity="0.1" stroke="#000000" stroke-width="1" x1="82" y1="265" x2="1018" y2="265"/>
<line opacity="0.1" stroke="#000000" stroke-width="1" x1="82" y1="254" x2="1018" y2="254"/>
<line opacity="0.1" stroke="#000000" stroke-width="1" x1="82" y1="244" x2="1018" y2="244"/>
<line opacity="0.1" stroke="#000000" stroke-width="1" x1="82" y1="234" x2="1018" y2="234"/>
<line opacity="0.1" stroke="#000000" stroke-width="1" x1="82" y1="224" x2="1018" y2="224"/>
<line opacity="0.1" stroke="#000000" stroke-width="1" x1="82" y1="214" x2="1018" y2="214"/>
<line opacity="0.1" stroke="#000000" stroke-width="1" x1="82" y1="204" x2="1018" y2="204"/>
<line opacity="0.1" stroke="#000000" stroke-width="1" x1="82" y1="194" x2="1018" y2="194"/>
<line opacity="0.1" stroke="#000000" stroke-width="1" x1="82" y1="184" x2="1018" y2="184"/>
<line opacity="0.1" stroke="#000000" stroke-width="1" x1="82" y1="173" x2="1018" y2="173"/>
<line opacity="0.1" stroke="#000000" stroke-width="1" x1="82" y1="163" x2="1018" y2="163"/>
<line opacity="0.1" stroke="#000000" stroke-width="1" x1="82" y1="153" x2="1018" y2="153"/>
<line opacity="0.1" stroke="#000000" stroke-width="1" x1="82" y1="143" x2="1018" y2="143"/>
<line opacity="0.1" stroke="#000000" stroke-width="1" x1="82" y1="133" x2="1018" y2="133"/>
<line opacity="0.1" stroke="#000000" stroke-width="1" x1="82" y1="123" x2="1018" y2="123"/>
<line opacity="0.1" stroke="#000000" stroke-width="1" x1="82" y1="113" x2="1018" y2="113"/>
<line opacity="0.1" stroke="#000000" stroke-width="1" x1="82" y1="103" x2="1018" y2="103"/>
<line opacity="0.1" stroke="#000000" stroke-width="1" x1="82" y1="93" x2="1018" y2="93"/>
<line opacity="0.1" stroke="#000000" stroke-width="1" x1="82" y1="82" x2="1018" y2="82"/>
<line opacity="0.1" stroke="#000000" stroke-width="1" x1="82" y1="72" x2="1018" y2="72"/>
<line opacity="0.1" stroke="#000000" stroke-width="1" x1="82" y1="62" x2="1018" y2="62"/>
<line opacity="0.1" stroke="#000000" stroke-width="1" x1="82" y1="52" x2="1018" y2="52"/>
<line opacity="0.1" stroke="#000000" stroke-width="1" x1="82" y1="42" x2="1018" y2="42"/>
<line opacity="0.1" stroke="#000000" stroke-width="1" x1="82" y1="32" x2="1018" y2="32"/>
<line opacity="0.1" stroke="#000000" stroke-width="1" x1="82" y1="22" x2="1018" y2="22"/>
<line opacity="0.1" stroke="#000000" stroke-width="1" x1="82" y1="12" x2="1018" y2="12"/>
<text x="5" y="345" dy="0.76em" text-anchor="middle" font-family="sans-serif" font-size="19.35483870967742" opacity="1" fill="#000000" transform="rotate(270, 5, 345)">
hwy
</text>
<text x="550" y="763" dy="-0.5ex" text-anchor="middle" font-family="sans-serif" font-size="19.35483870967742" opacity="1" fill="#000000">
displ
</text>
<line opacity="0.2" stroke="#000000" stroke-width="1" x1="170" y1="685" x2="170" y2="5"/>
<line opacity="0.2" stroke="#000000" stroke-width="1" x1="335" y1="685" x2="335" y2="5"/>
<line opacity="0.2" stroke="#000000" stroke-width="1" x1="500" y1="685" x2="500" y2="5"/>
<line opacity="0.2" stroke="#000000" stroke-width="1" x1="665" y1="685" x2="665" y2="5"/>
<line opacity="0.2" stroke="#000000" stroke-width="1" x1="830" y1="685" x2="830" y2="5"/>
<line opacity="0.2" stroke="#000000" stroke-width="1" x1="995" y1="685" x2="995" y2="5"/>
<line opacity="0.2" stroke="#000000" stroke-width="1" x1="82" y1="609" x2="1018" y2="609"/>
<line opacity="0.2" stroke="#000000" stroke-width="1" x1="82" y1="507" x2="1018" y2="507"/>
<line opacity="0.2" stroke="#000000" stroke-width="1" x1="82" y1="406" x2="1018" y2="406"/>
<line opacity="0.2" stroke="#000000" stroke-width="1" x1="82" y1="305" x2="1018" y2="305"/>
<line opacity="0.2" stroke="#000000" stroke-width="1" x1="82" y1="204" x2="1018" y2="204"/>
<line opacity="0.2" stroke="#000000" stroke-width="1" x1="82" y1="103" x2="1018" y2="103"/>
<polyline fill="none" opacity="1" stroke="#000000" stroke-width="1" points="81,5 81,685 "/>
<text x="72" y="609" dy="0.5ex" text-anchor="end" font-family="sans-serif" font-size="12.903225806451614" opacity="1" fill="#000000">
15.0
</text>
<polyline fill="none" opacity="1" stroke="#000000" stroke-width="1" points="76,609 81,609 "/>
<text x="72" y="507" dy="0.5ex" text-anchor="end" font-family="sans-serif" font-size="12.903225806451614" opacity="1" fill="#000000">
20.0
</text>
<polyline fill="none" opacity="1" stroke="#000000" stroke-width="1" points="76,507 81,507 "/>
<text x="72" y="406" dy="0.5ex" text-anchor="end" font-family="sans-serif" font-size="12.903225806451614" opacity="1" fill="#000000">
25.0
</text>
<polyline fill="none" opacity="1" stroke="#000000" stroke-width="1" points="76,406 81,406 "/>
<text x="72" y="305" dy="0.5ex" text-anchor="end" font-family="sans-serif" font-size="12.903225806451614" opacity="1" fill="#000000">
30.0
</text>
<polyline fill="none" opacity="1" stroke="#000000" stroke-width="1" points="76,305 81,305 "/>
<text x="72" y="204" dy="0.5ex" text-anchor="end" font-family="sans-serif" font-size="12.903225806451614" opacity="1" fill="#000000">
35.0
</text>
<polyline fill="none" opacity="1" stroke="#000000" stroke-width="1" points="76,204 81,204 "/>
<text x="72" y="103" dy="0.5ex" text-anchor="end" font-family="sans-serif" font-size="12.903225806451614" opacity="1" fill="#000000">
40.0
</text>
<polyline fill="none" opacity="1" stroke="#000000" stroke-width="1" points="76,103 81,103 "/>
<polyline fill="none" opacity="1" stroke="#000000" stroke-width="1" points="82,686 1018,686 "/>
<text x="170" y="696" dy="0.76em" text-anchor="middle" font-family="sans-serif" font-size="12.903225806451614" opacity="1" fill="#000000">
2.0
</text>
<polyline fill="none" opacity="1" stroke="#000000" stroke-width="1" points="170,686 170,691 "/>
<text x="335" y="696" dy="0.76em" text-anchor="middle" font-family="sans-serif" font-size="12.903225806451614" opacity="1" fill="#000000">
3.0
</text>
<polyline fill="none" opacity="1" stroke="#000000" stroke-width="1" points="335,686 335,691 "/>
<text x="500" y="696" dy="0.76em" text-anchor="middle" font-family="sans-serif" font-size="12.903225806451614" opacity="1" fill="#000000">
4.0
</text>
<polyline fill="none" opacity="1" stroke="#000000" stroke-width="1" points="500,686 500,691 "/>
<text x="665" y="696" dy="0.76em" text-anchor="middle" font-family="sans-serif" font-size="12.903225806451614" opacity="1" fill="#000000">
5.0
</text>
<polyline fill="none" opacity="1" stroke="#000000" stroke-width="1" points="665,686 665,691 "/>
<text x="830" y="696" dy="0.76em" text-anchor="middle" font-family="sans-serif" font-size="12.903225806451614" opacity="1" fill="#000000">
6.0
</text>
<polyline fill="none" opacity="1" stroke="#000000" stroke-width="1" points="830,686 830,691 "/>
<text x="995" y="696" dy="0.76em" text-anchor="middle" font-family="sans-serif" font-size="12.903225806451614" opacity="1" fill="#000000">
7.0
</text>
<polyline fill="none" opacity="1" stroke="#000000" stroke-width="1" points="995,686 995,691 "/>
<circle cx="137" cy="325" r="5" opacity="1" fill="#0000FF" stroke="none" stroke-width="1"/>
<circle cx="137" cy="325" r="5" opacity="1" fill="#0000FF" stroke="none" stroke-width="1"/>
<circle cx="170" cy="285" r="5" opacity="1" fill="#0000FF" stroke="none" stroke-width="1"/>
<circle cx="170" cy="305" r="5" opacity="1" fill="#0000FF" stroke="none" stroke-width="1"/>
<circle cx="302" cy="386" r="5" opacity="1" fill="#0000FF" stroke="none" stroke-width="1"/>
<circle cx="302" cy="386" r="5" opacity="1" fill="#0000FF" stroke="none" stroke-width="1"/>
<circle cx="351" cy="366" r="5" opacity="1" fill="#0000FF" stroke="none" stroke-width="1"/>
<circle cx="137" cy="386" r="5" opacity="1" fill="#0000FF" stroke="none" stroke-width="1"/>
<circle cx="137" cy="406" r="5" opacity="1" fill="#0000FF" stroke="none" stroke-width="1"/>
<circle cx="170" cy="345" r="5" opacity="1" fill="#0000FF" stroke="none" stroke-width="1"/>
<circle cx="170" cy="366" r="5" opacity="1" fill="#0000FF" stroke="none" stroke-width="1"/>
<circle cx="302" cy="406" r="5" opacity="1" fill="#0000FF" stroke="none" stroke-width="1"/>
<circle cx="302" cy="406" r="5" opacity="1" fill="#0000FF" stroke="none" stroke-width="1"/>
<circle cx="351" cy="406" r="5" opacity="1" fill="#0000FF" stroke="none" stroke-width="1"/>
<circle cx="351" cy="406" r="5" opacity="1" fill="#0000FF" stroke="none" stroke-width="1"/>
<circle cx="302" cy="426" r="5" opacity="1" fill="#0000FF" stroke="none" stroke-width="1"/>
<circle cx="351" cy="406" r="5" opacity="1" fill="#0000FF" stroke="none" stroke-width="1"/>
<circle cx="533" cy="447" r="5" opacity="1" fill="#0000FF" stroke="none" stroke-width="1"/>
<circle cx="715" cy="507" r="5" opacity="1" fill="#0000FF" stroke="none" stroke-width="1"/>
<circle cx="715" cy="609" r="5" opacity="1" fill="#0000FF" stroke="none" stroke-width="1"/>
<circle cx="715" cy="507" r="5" opacity="1" fill="#0000FF" stroke="none" stroke-width="1"/>
<circle cx="781" cy="568" r="5" opacity="1" fill="#0000FF" stroke="none" stroke-width="1"/>
<circle cx="830" cy="568" r="5" opacity="1" fill="#0000FF" stroke="none" stroke-width="1"/>
<circle cx="781" cy="386" r="5" opacity="1" fill="#0000FF" stroke="none" stroke-width="1"/>
<circle cx="781" cy="447" r="5" opacity="1" fill="#0000FF" stroke="none" stroke-width="1"/>
<circle cx="863" cy="386" r="5" opacity="1" fill="#0000FF" stroke="none" stroke-width="1"/>
<circle cx="863" cy="406" r="5" opacity="1" fill="#0000FF" stroke="none" stroke-width="1"/>
<circle cx="995" cy="426" r="5" opacity="1" fill="#0000FF" stroke="none" stroke-width="1"/>
<circle cx="715" cy="528" r="5" opacity="1" fill="#0000FF" stroke="none" stroke-width="1"/>
<circle cx="715" cy="629" r="5" opacity="1" fill="#0000FF" stroke="none" stroke-width="1"/>
<circle cx="781" cy="609" r="5" opacity="1" fill="#0000FF" stroke="none" stroke-width="1"/>
<circle cx="913" cy="568" r="5" opacity="1" fill="#0000FF" stroke="none" stroke-width="1"/>
<circle cx="236" cy="366" r="5" opacity="1" fill="#0000FF" stroke="none" stroke-width="1"/>
<circle cx="236" cy="305" r="5" opacity="1" fill="#0000FF" stroke="none" stroke-width="1"/>
<circle cx="351" cy="386" r="5" opacity="1" fill="#0000FF" stroke="none" stroke-width="1"/>
<circle cx="417" cy="325" r="5" opacity="1" fill="#0000FF" stroke="none" stroke-width="1"/>
<circle cx="434" cy="386" r="5" opacity="1" fill="#0000FF" stroke="none" stroke-width="1"/>
<circle cx="236" cy="426" r="5" opacity="1" fill="#0000FF" stroke="none" stroke-width="1"/>
<circle cx="335" cy="426" r="5" opacity="1" fill="#0000FF" stroke="none" stroke-width="1"/>
<circle cx="384" cy="467" r="5" opacity="1" fill="#0000FF" stroke="none" stroke-width="1"/>
<circle cx="384" cy="467" r="5" opacity="1" fill="#0000FF" stroke="none" stroke-width="1"/>
<circle cx="384" cy="426" r="5" opacity="1" fill="#0000FF" stroke="none" stroke-width="1"/>
<circle cx="384" cy="426" r="5" opacity="1" fill="#0000FF" stroke="none" stroke-width="1"/>
<circle cx="384" cy="568" r="5" opacity="1" fill="#0000FF" stroke="none" stroke-width="1"/>
<circle cx="467" cy="467" r="5" opacity="1" fill="#0000FF" stroke="none" stroke-width="1"/>
<circle cx="467" cy="487" r="5" opacity="1" fill="#0000FF" stroke="none" stroke-width="1"/>
<circle cx="467" cy="447" r="5" opacity="1" fill="#0000FF" stroke="none" stroke-width="1"/>
<circle cx="500" cy="447" r="5" opacity="1" fill="#0000FF" stroke="none" stroke-width="1"/>
<circle cx="450" cy="528" r="5" opacity="1" fill="#0000FF" stroke="none" stroke-width="1"/>
<circle cx="450" cy="548" r="5" opacity="1" fill="#0000FF" stroke="none" stroke-width="1"/>
<circle cx="483" cy="568" r="5" opacity="1" fill="#0000FF" stroke="none" stroke-width="1"/>
<circle cx="483" cy="568" r="5" opacity="1" fill="#0000FF" stroke="none" stroke-width="1"/>
<circle cx="616" cy="528" r="5" opacity="1" fill="#0000FF" stroke="none" stroke-width="1"/>
<circle cx="616" cy="528" r="5" opacity="1" fill="#0000FF" stroke="none" stroke-width="1"/>
<circle cx="616" cy="669" r="5" opacity="1" fill="#0000FF" stroke="none" stroke-width="1"/>
<circle cx="698" cy="568" r="5" opacity="1" fill="#0000FF" stroke="none" stroke-width="1"/>
<circle cx="698" cy="609" r="5" opacity="1" fill="#0000FF" stroke="none" stroke-width="1"/>
<circle cx="483" cy="568" r="5" opacity="1" fill="#0000FF" stroke="none" stroke-width="1"/>
<circle cx="616" cy="568" r="5" opacity="1" fill="#0000FF" stroke="none" stroke-width="1"/>
<circle cx="616" cy="669" r="5" opacity="1" fill="#0000FF" stroke="none" stroke-width="1"/>
<circle cx="616" cy="568" r="5" opacity="1" fill="#0000FF" stroke="none" stroke-width="1"/>
<circle cx="698" cy="588" r="5" opacity="1" fill="#0000FF" stroke="none" stroke-width="1"/>
<circle cx="781" cy="548" r="5" opacity="1" fill="#0000FF" stroke="none" stroke-width="1"/>
<circle cx="814" cy="609" r="5" opacity="1" fill="#0000FF" stroke="none" stroke-width="1"/>
<circle cx="616" cy="588" r="5" opacity="1" fill="#0000FF" stroke="none" stroke-width="1"/>
<circle cx="616" cy="669" r="5" opacity="1" fill="#0000FF" stroke="none" stroke-width="1"/>
<circle cx="616" cy="568" r="5" opacity="1" fill="#0000FF" stroke="none" stroke-width="1"/>
<circle cx="616" cy="568" r="5" opacity="1" fill="#0000FF" stroke="none" stroke-width="1"/>
<circle cx="616" cy="588" r="5" opacity="1" fill="#0000FF" stroke="none" stroke-width="1"/>
<circle cx="616" cy="669" r="5" opacity="1" fill="#0000FF" stroke="none" stroke-width="1"/>
<circle cx="698" cy="609" r="5" opacity="1" fill="#0000FF" stroke="none" stroke-width="1"/>
<circle cx="698" cy="588" r="5" opacity="1" fill="#0000FF" stroke="none" stroke-width="1"/>
<circle cx="781" cy="568" r="5" opacity="1" fill="#0000FF" stroke="none" stroke-width="1"/>
<circle cx="814" cy="609" r="5" opacity="1" fill="#0000FF" stroke="none" stroke-width="1"/>
<circle cx="599" cy="568" r="5" opacity="1" fill="#0000FF" stroke="none" stroke-width="1"/>
<circle cx="731" cy="568" r="5" opacity="1" fill="#0000FF" stroke="none" stroke-width="1"/>
<circle cx="731" cy="548" r="5" opacity="1" fill="#0000FF" stroke="none" stroke-width="1"/>
<circle cx="500" cy="568" r="5" opacity="1" fill="#0000FF" stroke="none" stroke-width="1"/>
<circle cx="500" cy="528" r="5" opacity="1" fill="#0000FF" stroke="none" stroke-width="1"/>
<circle cx="500" cy="568" r="5" opacity="1" fill="#0000FF" stroke="none" stroke-width="1"/>
<circle cx="500" cy="528" r="5" opacity="1" fill="#0000FF" stroke="none" stroke-width="1"/>
<circle cx="599" cy="528" r="5" opacity="1" fill="#0000FF" stroke="none" stroke-width="1"/>
<circle cx="665" cy="568" r="5" opacity="1" fill="#0000FF" stroke="none" stroke-width="1"/>
<circle cx="533" cy="568" r="5" opacity="1" fill="#0000FF" stroke="none" stroke-width="1"/>
<circle cx="533" cy="568" r="5" opacity="1" fill="#0000FF" stroke="none" stroke-width="1"/>
<circle cx="599" cy="588" r="5" opacity="1" fill="#0000FF" stroke="none" stroke-width="1"/>
<circle cx="599" cy="588" r="5" opacity="1" fill="#0000FF" stroke="none" stroke-width="1"/>
<circle cx="599" cy="568" r="5" opacity="1" fill="#0000FF" stroke="none" stroke-width="1"/>
<circle cx="731" cy="609" r="5" opacity="1" fill="#0000FF" stroke="none" stroke-width="1"/>
<circle cx="731" cy="568" r="5" opacity="1" fill="#0000FF" stroke="none" stroke-width="1"/>
<circle cx="467" cy="386" r="5" opacity="1" fill="#0000FF" stroke="none" stroke-width="1"/>
<circle cx="467" cy="406" r="5" opacity="1" fill="#0000FF" stroke="none" stroke-width="1"/>
<circle cx="500" cy="386" r="5" opacity="1" fill="#0000FF" stroke="none" stroke-width="1"/>
<circle cx="500" cy="426" r="5" opacity="1" fill="#0000FF" stroke="none" stroke-width="1"/>
<circle cx="599" cy="487" r="5" opacity="1" fill="#0000FF" stroke="none" stroke-width="1"/>
<circle cx="599" cy="467" r="5" opacity="1" fill="#0000FF" stroke="none" stroke-width="1"/>
<circle cx="599" cy="447" r="5" opacity="1" fill="#0000FF" stroke="none" stroke-width="1"/>
<circle cx="599" cy="467" r="5" opacity="1" fill="#0000FF" stroke="none" stroke-width="1"/>
<circle cx="731" cy="507" r="5" opacity="1" fill="#0000FF" stroke="none" stroke-width="1"/>
<circle cx="104" cy="244" r="5" opacity="1" fill="#0000FF" stroke="none" stroke-width="1"/>
<circle cx="104" cy="265" r="5" opacity="1" fill="#0000FF" stroke="none" stroke-width="1"/>
<circle cx="104" cy="265" r="5" opacity="1" fill="#0000FF" stroke="none" stroke-width="1"/>
<circle cx="104" cy="325" r="5" opacity="1" fill="#0000FF" stroke="none" stroke-width="1"/>
<circle cx="104" cy="265" r="5" opacity="1" fill="#0000FF" stroke="none" stroke-width="1"/>
<circle cx="137" cy="224" r="5" opacity="1" fill="#0000FF" stroke="none" stroke-width="1"/>
<circle cx="137" cy="184" r="5" opacity="1" fill="#0000FF" stroke="none" stroke-width="1"/>
<circle cx="137" cy="184" r="5" opacity="1" fill="#0000FF" stroke="none" stroke-width="1"/>
<circle cx="170" cy="325" r="5" opacity="1" fill="#0000FF" stroke="none" stroke-width="1"/>
<circle cx="236" cy="386" r="5" opacity="1" fill="#0000FF" stroke="none" stroke-width="1"/>
<circle cx="236" cy="366" r="5" opacity="1" fill="#0000FF" stroke="none" stroke-width="1"/>
<circle cx="236" cy="305" r="5" opacity="1" fill="#0000FF" stroke="none" stroke-width="1"/>
<circle cx="236" cy="285" r="5" opacity="1" fill="#0000FF" stroke="none" stroke-width="1"/>
<circle cx="252" cy="386" r="5" opacity="1" fill="#0000FF" stroke="none" stroke-width="1"/>
<circle cx="252" cy="386" r="5" opacity="1" fill="#0000FF" stroke="none" stroke-width="1"/>
<circle cx="384" cy="345" r="5" opacity="1" fill="#0000FF" stroke="none" stroke-width="1"/>
<circle cx="170" cy="386" r="5" opacity="1" fill="#0000FF" stroke="none" stroke-width="1"/>
<circle cx="170" cy="325" r="5" opacity="1" fill="#0000FF" stroke="none" stroke-width="1"/>
<circle cx="170" cy="345" r="5" opacity="1" fill="#0000FF" stroke="none" stroke-width="1"/>
<circle cx="170" cy="366" r="5" opacity="1" fill="#0000FF" stroke="none" stroke-width="1"/>
<circle cx="285" cy="426" r="5" opacity="1" fill="#0000FF" stroke="none" stroke-width="1"/>
<circle cx="285" cy="426" r="5" opacity="1" fill="#0000FF" stroke="none" stroke-width="1"/>
<circle cx="285" cy="426" r="5" opacity="1" fill="#0000FF" stroke="none" stroke-width="1"/>
<circle cx="335" cy="467" r="5" opacity="1" fill="#0000FF" stroke="none" stroke-width="1"/>
<circle cx="450" cy="528" r="5" opacity="1" fill="#0000FF" stroke="none" stroke-width="1"/>
<circle cx="500" cy="507" r="5" opacity="1" fill="#0000FF" stroke="none" stroke-width="1"/>
<circle cx="616" cy="568" r="5" opacity="1" fill="#0000FF" stroke="none" stroke-width="1"/>
<circle cx="616" cy="669" r="5" opacity="1" fill="#0000FF" stroke="none" stroke-width="1"/>
<circle cx="616" cy="528" r="5" opacity="1" fill="#0000FF" stroke="none" stroke-width="1"/>
<circle cx="781" cy="548" r="5" opacity="1" fill="#0000FF" stroke="none" stroke-width="1"/>
<circle cx="847" cy="629" r="5" opacity="1" fill="#0000FF" stroke="none" stroke-width="1"/>
<circle cx="500" cy="609" r="5" opacity="1" fill="#0000FF" stroke="none" stroke-width="1"/>
<circle cx="533" cy="548" r="5" opacity="1" fill="#0000FF" stroke="none" stroke-width="1"/>
<circle cx="566" cy="548" r="5" opacity="1" fill="#0000FF" stroke="none" stroke-width="1"/>
<circle cx="599" cy="609" r="5" opacity="1" fill="#0000FF" stroke="none" stroke-width="1"/>
<circle cx="731" cy="568" r="5" opacity="1" fill="#0000FF" stroke="none" stroke-width="1"/>
<circle cx="731" cy="588" r="5" opacity="1" fill="#0000FF" stroke="none" stroke-width="1"/>
<circle cx="731" cy="548" r="5" opacity="1" fill="#0000FF" stroke="none" stroke-width="1"/>
<circle cx="500" cy="568" r="5" opacity="1" fill="#0000FF" stroke="none" stroke-width="1"/>
<circle cx="500" cy="528" r="5" opacity="1" fill="#0000FF" stroke="none" stroke-width="1"/>
<circle cx="599" cy="528" r="5" opacity="1" fill="#0000FF" stroke="none" stroke-width="1"/>
<circle cx="665" cy="568" r="5" opacity="1" fill="#0000FF" stroke="none" stroke-width="1"/>
<circle cx="236" cy="325" r="5" opacity="1" fill="#0000FF" stroke="none" stroke-width="1"/>
<circle cx="236" cy="366" r="5" opacity="1" fill="#0000FF" stroke="none" stroke-width="1"/>
<circle cx="252" cy="285" r="5" opacity="1" fill="#0000FF" stroke="none" stroke-width="1"/>
<circle cx="252" cy="265" r="5" opacity="1" fill="#0000FF" stroke="none" stroke-width="1"/>
<circle cx="417" cy="366" r="5" opacity="1" fill="#0000FF" stroke="none" stroke-width="1"/>
<circle cx="417" cy="386" r="5" opacity="1" fill="#0000FF" stroke="none" stroke-width="1"/>
<circle cx="335" cy="386" r="5" opacity="1" fill="#0000FF" stroke="none" stroke-width="1"/>
<circle cx="335" cy="406" r="5" opacity="1" fill="#0000FF" stroke="none" stroke-width="1"/>
<circle cx="417" cy="406" r="5" opacity="1" fill="#0000FF" stroke="none" stroke-width="1"/>
<circle cx="384" cy="568" r="5" opacity="1" fill="#0000FF" stroke="none" stroke-width="1"/>
<circle cx="384" cy="568" r="5" opacity="1" fill="#0000FF" stroke="none" stroke-width="1"/>
<circle cx="500" cy="507" r="5" opacity="1" fill="#0000FF" stroke="none" stroke-width="1"/>
<circle cx="764" cy="548" r="5" opacity="1" fill="#0000FF" stroke="none" stroke-width="1"/>
<circle cx="351" cy="386" r="5" opacity="1" fill="#0000FF" stroke="none" stroke-width="1"/>
<circle cx="467" cy="386" r="5" opacity="1" fill="#0000FF" stroke="none" stroke-width="1"/>
<circle cx="467" cy="366" r="5" opacity="1" fill="#0000FF" stroke="none" stroke-width="1"/>
<circle cx="467" cy="345" r="5" opacity="1" fill="#0000FF" stroke="none" stroke-width="1"/>
<circle cx="715" cy="406" r="5" opacity="1" fill="#0000FF" stroke="none" stroke-width="1"/>
<circle cx="252" cy="406" r="5" opacity="1" fill="#0000FF" stroke="none" stroke-width="1"/>
<circle cx="252" cy="426" r="5" opacity="1" fill="#0000FF" stroke="none" stroke-width="1"/>
<circle cx="252" cy="366" r="5" opacity="1" fill="#0000FF" stroke="none" stroke-width="1"/>
<circle cx="252" cy="406" r="5" opacity="1" fill="#0000FF" stroke="none" stroke-width="1"/>
<circle cx="252" cy="386" r="5" opacity="1" fill="#0000FF" stroke="none" stroke-width="1"/>
<circle cx="252" cy="447" r="5" opacity="1" fill="#0000FF" stroke="none" stroke-width="1"/>
<circle cx="203" cy="386" r="5" opacity="1" fill="#0000FF" stroke="none" stroke-width="1"/>
<circle cx="203" cy="386" r="5" opacity="1" fill="#0000FF" stroke="none" stroke-width="1"/>
<circle cx="252" cy="386" r="5" opacity="1" fill="#0000FF" stroke="none" stroke-width="1"/>
<circle cx="252" cy="386" r="5" opacity="1" fill="#0000FF" stroke="none" stroke-width="1"/>
<circle cx="252" cy="406" r="5" opacity="1" fill="#0000FF" stroke="none" stroke-width="1"/>
<circle cx="252" cy="366" r="5" opacity="1" fill="#0000FF" stroke="none" stroke-width="1"/>
<circle cx="252" cy="406" r="5" opacity="1" fill="#0000FF" stroke="none" stroke-width="1"/>
<circle cx="252" cy="366" r="5" opacity="1" fill="#0000FF" stroke="none" stroke-width="1"/>
<circle cx="285" cy="507" r="5" opacity="1" fill="#0000FF" stroke="none" stroke-width="1"/>
<circle cx="285" cy="507" r="5" opacity="1" fill="#0000FF" stroke="none" stroke-width="1"/>
<circle cx="401" cy="528" r="5" opacity="1" fill="#0000FF" stroke="none" stroke-width="1"/>
<circle cx="401" cy="568" r="5" opacity="1" fill="#0000FF" stroke="none" stroke-width="1"/>
<circle cx="500" cy="507" r="5" opacity="1" fill="#0000FF" stroke="none" stroke-width="1"/>
<circle cx="616" cy="568" r="5" opacity="1" fill="#0000FF" stroke="none" stroke-width="1"/>
<circle cx="203" cy="325" r="5" opacity="1" fill="#0000FF" stroke="none" stroke-width="1"/>
<circle cx="203" cy="366" r="5" opacity="1" fill="#0000FF" stroke="none" stroke-width="1"/>
<circle cx="236" cy="285" r="5" opacity="1" fill="#0000FF" stroke="none" stroke-width="1"/>
<circle cx="236" cy="285" r="5" opacity="1" fill="#0000FF" stroke="none" stroke-width="1"/>
<circle cx="335" cy="386" r="5" opacity="1" fill="#0000FF" stroke="none" stroke-width="1"/>
<circle cx="335" cy="386" r="5" opacity="1" fill="#0000FF" stroke="none" stroke-width="1"/>
<circle cx="417" cy="345" r="5" opacity="1" fill="#0000FF" stroke="none" stroke-width="1"/>
<circle cx="203" cy="366" r="5" opacity="1" fill="#0000FF" stroke="none" stroke-width="1"/>
<circle cx="203" cy="325" r="5" opacity="1" fill="#0000FF" stroke="none" stroke-width="1"/>
<circle cx="236" cy="285" r="5" opacity="1" fill="#0000FF" stroke="none" stroke-width="1"/>
<circle cx="236" cy="285" r="5" opacity="1" fill="#0000FF" stroke="none" stroke-width="1"/>
<circle cx="335" cy="386" r="5" opacity="1" fill="#0000FF" stroke="none" stroke-width="1"/>
<circle cx="335" cy="386" r="5" opacity="1" fill="#0000FF" stroke="none" stroke-width="1"/>
<circle cx="384" cy="366" r="5" opacity="1" fill="#0000FF" stroke="none" stroke-width="1"/>
<circle cx="137" cy="305" r="5" opacity="1" fill="#0000FF" stroke="none" stroke-width="1"/>
<circle cx="137" cy="244" r="5" opacity="1" fill="#0000FF" stroke="none" stroke-width="1"/>
<circle cx="137" cy="204" r="5" opacity="1" fill="#0000FF" stroke="none" stroke-width="1"/>
<circle cx="137" cy="163" r="5" opacity="1" fill="#0000FF" stroke="none" stroke-width="1"/>
<circle cx="137" cy="204" r="5" opacity="1" fill="#0000FF" stroke="none" stroke-width="1"/>
<circle cx="616" cy="609" r="5" opacity="1" fill="#0000FF" stroke="none" stroke-width="1"/>
<circle cx="781" cy="548" r="5" opacity="1" fill="#0000FF" stroke="none" stroke-width="1"/>
<circle cx="285" cy="507" r="5" opacity="1" fill="#0000FF" stroke="none" stroke-width="1"/>
<circle cx="285" cy="507" r="5" opacity="1" fill="#0000FF" stroke="none" stroke-width="1"/>
<circle cx="285" cy="467" r="5" opacity="1" fill="#0000FF" stroke="none" stroke-width="1"/>
<circle cx="401" cy="568" r="5" opacity="1" fill="#0000FF" stroke="none" stroke-width="1"/>
<circle cx="401" cy="528" r="5" opacity="1" fill="#0000FF" stroke="none" stroke-width="1"/>
<circle cx="500" cy="548" r="5" opacity="1" fill="#0000FF" stroke="none" stroke-width="1"/>
<circle cx="500" cy="507" r="5" opacity="1" fill="#0000FF" stroke="none" stroke-width="1"/>
<circle cx="170" cy="325" r="5" opacity="1" fill="#0000FF" stroke="none" stroke-width="1"/>
<circle cx="170" cy="386" r="5" opacity="1" fill="#0000FF" stroke="none" stroke-width="1"/>
<circle cx="170" cy="325" r="5" opacity="1" fill="#0000FF" stroke="none" stroke-width="1"/>
<circle cx="170" cy="325" r="5" opacity="1" fill="#0000FF" stroke="none" stroke-width="1"/>
<circle cx="302" cy="426" r="5" opacity="1" fill="#0000FF" stroke="none" stroke-width="1"/>
<circle cx="153" cy="22" r="5" opacity="1" fill="#0000FF" stroke="none" stroke-width="1"/>
<circle cx="170" cy="325" r="5" opacity="1" fill="#0000FF" stroke="none" stroke-width="1"/>
<circle cx="170" cy="386" r="5" opacity="1" fill="#0000FF" stroke="none" stroke-width="1"/>
<circle cx="170" cy="325" r="5" opacity="1" fill="#0000FF" stroke="none" stroke-width="1"/>
<circle cx="170" cy="325" r="5" opacity="1" fill="#0000FF" stroke="none" stroke-width="1"/>
<circle cx="252" cy="325" r="5" opacity="1" fill="#0000FF" stroke="none" stroke-width="1"/>
<circle cx="252" cy="325" r="5" opacity="1" fill="#0000FF" stroke="none" stroke-width="1"/>
<circle cx="302" cy="447" r="5" opacity="1" fill="#0000FF" stroke="none" stroke-width="1"/>
<circle cx="302" cy="426" r="5" opacity="1" fill="#0000FF" stroke="none" stroke-width="1"/>
<circle cx="153" cy="22" r="5" opacity="1" fill="#0000FF" stroke="none" stroke-width="1"/>
<circle cx="153" cy="82" r="5" opacity="1" fill="#0000FF" stroke="none" stroke-width="1"/>
<circle cx="170" cy="325" r="5" opacity="1" fill="#0000FF" stroke="none" stroke-width="1"/>
<circle cx="170" cy="386" r="5" opacity="1" fill="#0000FF" stroke="none" stroke-width="1"/>
<circle cx="252" cy="345" r="5" opacity="1" fill="#0000FF" stroke="none" stroke-width="1"/>
<circle cx="252" cy="325" r="5" opacity="1" fill="#0000FF" stroke="none" stroke-width="1"/>
<circle cx="137" cy="325" r="5" opacity="1" fill="#0000FF" stroke="none" stroke-width="1"/>
<circle cx="137" cy="325" r="5" opacity="1" fill="#0000FF" stroke="none" stroke-width="1"/>
<circle cx="170" cy="345" r="5" opacity="1" fill="#0000FF" stroke="none" stroke-width="1"/>
<circle cx="170" cy="325" r="5" opacity="1" fill="#0000FF" stroke="none" stroke-width="1"/>
<circle cx="302" cy="386" r="5" opacity="1" fill="#0000FF" stroke="none" stroke-width="1"/>
<circle cx="302" cy="386" r="5" opacity="1" fill="#0000FF" stroke="none" stroke-width="1"/>
<circle cx="434" cy="386" r="5" opacity="1" fill="#0000FF" stroke="none" stroke-width="1"/>
</svg>
