<svg width="1024" height="768" viewBox="0 0 1024 768" xmlns="http://www.w3.org/2000/svg">
<rect x="0" y="0" width="1024" height="768" opacity="1" fill="#FFFFFF" stroke="none"/>
<line opacity="0.1" stroke="#000000" stroke-width="1" x1="85" y1="685" x2="85" y2="5"/>
<line opacity="0.1" stroke="#000000" stroke-width="1" x1="104" y1="685" x2="104" y2="5"/>
<line opacity="0.1" stroke="#000000" stroke-width="1" x1="123" y1="685" x2="123" y2="5"/>
<line opacity="0.1" stroke="#000000" stroke-width="1" x1="142" y1="685" x2="142" y2="5"/>
<line opacity="0.1" stroke="#000000" stroke-width="1" x1="161" y1="685" x2="161" y2="5"/>
<line opacity="0.1" stroke="#000000" stroke-width="1" x1="180" y1="685" x2="180" y2="5"/>
<line opacity="0.1" stroke="#000000" stroke-width="1" x1="199" y1="685" x2="199" y2="5"/>
<line opacity="0.1" stroke="#000000" stroke-width="1" x1="218" y1="685" x2="218" y2="5"/>
<line opacity="0.1" stroke="#000000" stroke-width="1" x1="237" y1="685" x2="237" y2="5"/>
<line opacity="0.1" stroke="#000000" stroke-width="1" x1="256" y1="685" x2="256" y2="5"/>
<line opacity="0.1" stroke="#000000" stroke-width="1" x1="275" y1="685" x2="275" y2="5"/>
<line opacity="0.1" stroke="#000000" stroke-width="1" x1="294" y1="685" x2="294" y2="5"/>
<line opacity="0.1" stroke="#000000" stroke-width="1" x1="313" y1="685" x2="313" y2="5"/>
<line opacity="0.1" stroke="#000000" stroke-width="1" x1="332" y1="685" x2="332" y2="5"/>
<line opacity="0.1" stroke="#000000" stroke-width="1" x1="351" y1="685" x2="351" y2="5"/>
<line opacity="0.1" stroke="#000000" stroke-width="1" x1="370" y1="685" x2="370" y2="5"/>
<line opacity="0.1" stroke="#000000" stroke-width="1" x1="390" y1="685" x2="390" y2="5"/>
<line opacity="0.1" stroke="#000000" stroke-width="1" x1="409" y1="685" x2="409" y2="5"/>
<line opacity="0.1" stroke="#000000" stroke-width="1" x1="428" y1="685" x2="428" y2="5"/>
<line opacity="0.1" stroke="#000000" stroke-width="1" x1="447" y1="685" x2="447" y2="5"/>
<line opacity="0.1" stroke="#000000" stroke-width="1" x1="466" y1="685" x2="466" y2="5"/>
<line opacity="0.1" stroke="#000000" stroke-width="1" x1="485" y1="685" x2="485" y2="5"/>
<line opacity="0.1" stroke="#000000" stroke-width="1" x1="504" y1="685" x2="504" y2="5"/>
<line opacity="0.1" stroke="#000000" stroke-width="1" x1="523" y1="685" x2="523" y2="5"/>
<line opacity="0.1" stroke="#000000" stroke-width="1" x1="542" y1="685" x2="542" y2="5"/>
<line opacity="0.1" stroke="#000000" stroke-width="1" x1="561" y1="685" x2="561" y2="5"/>
<line opacity="0.1" stroke="#000000" stroke-width="1" x1="580" y1="685" x2="580" y2="5"/>
<line opacity="0.1" stroke="#000000" stroke-width="1" x1="599" y1="685" x2="599" y2="5"/>
<line opacity="0.1" stroke="#000000" stroke-width="1" x1="618" y1="685" x2="618" y2="5"/>
<line opacity="0.1" stroke="#000000" stroke-width="1" x1="637" y1="685" x2="637" y2="5"/>
<line opacity="0.1" stroke="#000000" stroke-width="1" x1="656" y1="685" x2="656" y2="5"/>
<line opacity="0.1" stroke="#000000" stroke-width="1" x1="675" y1="685" x2="675" y2="5"/>
<line opacity="0.1" stroke="#000000" stroke-width="1" x1="694" y1="685" x2="694" y2="5"/>
<line opacity="0.1" stroke="#000000" stroke-width="1" x1="713" y1="685" x2="713" y2="5"/>
<line opacity="0.1" stroke="#000000" stroke-width="1" x1="732" y1="685" x2="732" y2="5"/>
<line opacity="0.1" stroke="#000000" stroke-width="1" x1="751" y1="685" x2="751" y2="5"/>
<line opacity="0.1" stroke="#000000" stroke-width="1" x1="770" y1="685" x2="770" y2="5"/>
<line opacity="0.1" stroke="#000000" stroke-width="1" x1="790" y1="685" x2="790" y2="5"/>
<line opacity="0.1" stroke="#000000" stroke-width="1" x1="809" y1="685" x2="809" y2="5"/>
<line opacity="0.1" stroke="#000000" stroke-width="1" x1="828" y1="685" x2="828" y2="5"/>
<line opacity="0.1" stroke="#000000" stroke-width="1" x1="847" y1="685" x2="847" y2="5"/>
<line opacity="0.1" stroke="#000000" stroke-width="1" x1="866" y1="685" x2="866" y2="5"/>
<line opacity="0.1" stroke="#000000" stroke-width="1" x1="885" y1="685" x2="885" y2="5"/>
<line opacity="0.1" stroke="#000000" stroke-width="1" x1="904" y1="685" x2="904" y2="5"/>
<line opacity="0.1" stroke="#000000" stroke-width="1" x1="923" y1="685" x2="923" y2="5"/>
<line opacity="0.1" stroke="#000000" stroke-width="1" x1="942" y1="685" x2="942" y2="5"/>
<line opacity="0.1" stroke="#000000" stroke-width="1" x1="961" y1="685" x2="961" y2="5"/>
<line opacity="0.1" stroke="#000000" stroke-width="1" x1="980" y1="685" x2="980" y2="5"/>
<line opacity="0.1" stroke="#000000" stroke-width="1" x1="999" y1="685" x2="999" y2="5"/>
<line opacity="0.1" stroke="#000000" stroke-width="1" x1="82" y1="679" x2="1018" y2="679"/>
<line opacity="0.1" stroke="#000000" stroke-width="1" x1="82" y1="669" x2="1018" y2="669"/>
<line opacity="0.1" stroke="#000000" stroke-width="1" x1="82" y1="659" x2="1018" y2="659"/>
<line opacity="0.1" stroke="#000000" stroke-width="1" x1="82" y1="649" x2="1018" y2="649"/>
<line opacity="0.1" stroke="#000000" stroke-width="1" x1="82" y1="639" x2="1018" y2="639"/>
<line opacity="0.1" stroke="#000000" stroke-width="1" x1="82" y1="629" x2="1018" y2="629"/>
<line opacity="0.1" stroke="#000000" stroke-width="1" x1="82" y1="619" x2="1018" y2="619"/>
<line opacity="0.1" stroke="#000000" stroke-width="1" x1="82" y1="609" x2="1018" y2="609"/>
<line opacity="0.1" stroke="#000000" stroke-width="1" x1="82" y1="598" x2="1018" y2="598"/>
<line opacity="0.1" stroke="#000000" stroke-width="1" x1="82" y1="588" x2="1018" y2="588"/>
<line opacity="0.1" stroke="#000000" stroke-width="1" x1="82" y1="578" x2="1018" y2="578"/>
<line opacity="0.1" stroke="#000000" stroke-width="1" x1="82" y1="568" x2="1018" y2="568"/>
<line opacity="0.1" stroke="#000000" stroke-width="1" x1="82" y1="558" x2="1018" y2="558"/>
<line opacity="0.1" stroke="#000000" stroke-width="1" x1="82" y1="548" x2="1018" y2="548"/>
<line opacity="0.1" stroke="#000000" stroke-width="1" x1="82" y1="538" x2="1018" y2="538"/>
<line opacity="0.1" stroke="#000000" stroke-width="1" x1="82" y1="528" x2="1018" y2="528"/>
<line opacity="0.1" stroke="#000000" stroke-width="1" x1="82" y1="518" x2="1018" y2="518"/>
<line opacity="0.1" stroke="#000000" stroke-width="1" x1="82" y1="507" x2="1018" y2="507"/>
<line opacity="0.1" stroke="#000000" stroke-width="1" x1="82" y1="497" x2="1018" y2="497"/>
<line opacity="0.1" stroke="#000000" stroke-width="1" x1="82" y1="487" x2="1018" y2="487"/>
<line opacity="0.1" stroke="#000000" stroke-width="1" x1="82" y1="477" x2="1018" y2="477"/>
<line opacity="0.1" stroke="#000000" stroke-width="1" x1="82" y1="467" x2="1018" y2="467"/>
<line opacity="0.1" stroke="#000000" stroke-width="1" x1="82" y1="457" x2="1018" y2="457"/>
<line opacity="0.1" stroke="#000000" stroke-width="1" x1="82" y1="447" x2="1018" y2="447"/>
<line opacity="0.1" stroke="#000000" stroke-width="1" x1="82" y1="437" x2="1018" y2="437"/>
<line opacity="0.1" stroke="#000000" stroke-width="1" x1="82" y1="426" x2="1018" y2="426"/>
<line opacity="0.1" stroke="#000000" stroke-width="1" x1="82" y1="416" x2="1018" y2="416"/>
<line opacity="0.1" stroke="#000000" stroke-width="1" x1="82" y1="406" x2="1018" y2="406"/>
<line opacity="0.1" stroke="#000000" stroke-width="1" x1="82" y1="396" x2="1018" y2="396"/>
<line opacity="0.1" stroke="#000000" stroke-width="1" x1="82" y1="386" x2="1018" y2="386"/>
<line opacity="0.1" stroke="#000000" stroke-width="1" x1="82" y1="376" x2="1018" y2="376"/>
<line opacity="0.1" stroke="#000000" stroke-width="1" x1="82" y1="366" x2="1018" y2="366"/>
<line opacity="0.1" stroke="#000000" stroke-width="1" x1="82" y1="356" x2="1018" y2="356"/>
<line opacity="0.1" stroke="#000000" stroke-width="1" x1="82" y1="345" x2="1018" y2="345"/>
<line opacity="0.1" stroke="#000000" stroke-width="1" x1="82" y1="335" x2="1018" y2="335"/>
<line opacity="0.1" stroke="#000000" stroke-width="1" x1="82" y1="325" x2="1018" y2="325"/>
<line opacity="0.1" stroke="#000000" stroke-width="1" x1="82" y1="315" x2="1018" y2="315"/>
<line opacity="0.1" stroke="#000000" stroke-width="1" x1="82" y1="305" x2="1018" y2="305"/>
<line opacity="0.1" stroke="#000000" stroke-width="1" x1="82" y1="295" x2="1018" y2="295"/>
<line opacity="0.1" stroke="#000000" stroke-width="1" x1="82" y1="285" x2="1018" y2="285"/>
<line opacity="0.1" stroke="#000000" stroke-width="1" x1="82" y1="275" x2="1018" y2="275"/>
<line opacity="0.1" stroke="#000000" stroke-width="1" x1="82" y1="265" x2="1018" y2="265"/>
<line opacity="0.1" stroke="#000000" stroke-width="1" x1="82" y1="254" x2="1018" y2="254"/>
<line opacity="0.1" stroke="#000000" stroke-width="1" x1="82" y1="244" x2="1018" y2="244"/>
<line opacity="0.1" stroke="#000000" stroke-width="1" x1="82" y1="234" x2="1018" y2="234"/>
<line opacity="0.1" stroke="#000000" stroke-width="1" x1="82" y1="224" x2="1018" y2="224"/>
<line opacity="0.1" stroke="#000000" stroke-width="1" x1="82" y1="214" x2="1018" y2="214"/>
<line opacity="0.1" stroke="#000000" stroke-width="1" x1="82" y1="204" x2="1018" y2="204"/>
<line opacity="0.1" stroke="#000000" stroke-width="1" x1="82" y1="194" x2="1018" y2="194"/>
<line opacity="0.1" stroke="#000000" stroke-width="1" x1="82" y1="184" x2="1018" y2="184"/>
<line opacity="0.1" stroke="#000000" stroke-width="1" x1="82" y1="173" x2="1018" y2="173"/>
<line opacity="0.1" stroke="#000000" stroke-width="1" x1="82" y1="163" x2="1018" y2="163"/>
<line opacity="0.1" stroke="#000000" stroke-width="1" x1="82" y1="153" x2="1018" y2="153"/>
<line opacity="0.1" stroke="#000000" stroke-width="1" x1="82" y1="143" x2="1018" y2="143"/>
<line opacity="0.1" stroke="#000000" stroke-width="1" x1="82" y1="133" x2="1018" y2="133"/>
<line opacity="0.1" stroke="#000000" stroke-width="1" x1="82" y1="123" x2="1018" y2="123"/>
<line opacity="0.1" stroke="#000000" stroke-width="1" x1="82" y1="113" x2="1018" y2="113"/>
<line opacity="0.1" stroke="#000000" stroke-width="1" x1="82" y1="103" x2="1018" y2="103"/>
<line opacity="0.1" stroke="#000000" stroke-width="1" x1="82" y1="93" x2="1018" y2="93"/>
<line opacity="0.1" stroke="#000000" stroke-width="1" x1="82" y1="82" x2="1018" y2="82"/>
<line opacity="0.1" stroke="#000000" stroke-width="1" x1="82" y1="72" x2="1018" y2="72"/>
<line opacity="0.1" stroke="#000000" stroke-width="1" x1="82" y1="62" x2="1018" y2="62"/>
<line opacity="0.1" stroke="#000000" stroke-width="1" x1="82" y1="52" x2="1018" y2="52"/>
<line opacity="0.1" stroke="#000000" stroke-width="1" x1="82" y1="42" x2="1018" y2="42"/>
<line opacity="0.1" stroke="#000000" stroke-width="1" x1="82" y1="32" x2="1018" y2="32"/>
<line opacity="0.1" stroke="#000000" stroke-width="1" x1="82" y1="22" x2="1018" y2="22"/>
<line opacity="0.1" stroke="#000000" stroke-width="1" x1="82" y1="12" x2="1018" y2="12"/>
<text x="5" y="345" dy="0.76em" text-anchor="middle" font-family="sans-serif" font-size="19.35483870967742" opacity="1" fill="#000000" transform="rotate(270, 5, 345)">
y
</text>
<text x="550" y="763" dy="-0.5ex" text-anchor="middle" font-family="sans-serif" font-size="19.35483870967742" opacity="1" fill="#000000">
hwy
</text>
<line opacity="0.2" stroke="#000000" stroke-width="1" x1="104" y1="685" x2="104" y2="5"/>
<line opacity="0.2" stroke="#000000" stroke-width="1" x1="294" y1="685" x2="294" y2="5"/>
<line opacity="0.2" stroke="#000000" stroke-width="1" x1="485" y1="685" x2="485" y2="5"/>
<line opacity="0.2" stroke="#000000" stroke-width="1" x1="675" y1="685" x2="675" y2="5"/>
<line opacity="0.2" stroke="#000000" stroke-width="1" x1="866" y1="685" x2="866" y2="5"/>
<line opacity="0.2" stroke="#000000" stroke-width="1" x1="82" y1="609" x2="1018" y2="609"/>
<line opacity="0.2" stroke="#000000" stroke-width="1" x1="82" y1="507" x2="1018" y2="507"/>
<line opacity="0.2" stroke="#000000" stroke-width="1" x1="82" y1="406" x2="1018" y2="406"/>
<line opacity="0.2" stroke="#000000" stroke-width="1" x1="82" y1="305" x2="1018" y2="305"/>
<line opacity="0.2" stroke="#000000" stroke-width="1" x1="82" y1="204" x2="1018" y2="204"/>
<line opacity="0.2" stroke="#000000" stroke-width="1" x1="82" y1="103" x2="1018" y2="103"/>
<polyline fill="none" opacity="1" stroke="#000000" stroke-width="1" points="81,5 81,685 "/>
<text x="72" y="609" dy="0.5ex" text-anchor="end" font-family="sans-serif" font-size="12.903225806451614" opacity="1" fill="#000000">
15.0
</text>
<polyline fill="none" opacity="1" stroke="#000000" stroke-width="1" points="76,609 81,609 "/>
<text x="72" y="507" dy="0.5ex" text-anchor="end" font-family="sans-serif" font-size="12.903225806451614" opacity="1" fill="#000000">
20.0
</text>
<polyline fill="none" opacity="1" stroke="#000000" stroke-width="1" points="76,507 81,507 "/>
<text x="72" y="406" dy="0.5ex" text-anchor="end" font-family="sans-serif" font-size="12.903225806451614" opacity="1" fill="#000000">
25.0
</text>
<polyline fill="none" opacity="1" stroke="#000000" stroke-width="1" points="76,406 81,406 "/>
<text x="72" y="305" dy="0.5ex" text-anchor="end" font-family="sans-serif" font-size="12.903225806451614" opacity="1" fill="#000000">
30.0
</text>
<polyline fill="none" opacity="1" stroke="#000000" stroke-width="1" points="76,305 81,305 "/>
<text x="72" y="204" dy="0.5ex" text-anchor="end" font-family="sans-serif" font-size="12.903225806451614" opacity="1" fill="#000000">
35.0
</text>
<polyline fill="none" opacity="1" stroke="#000000" stroke-width="1" points="76,204 81,204 "/>
<text x="72" y="103" dy="0.5ex" text-anchor="end" font-family="sans-serif" font-size="12.903225806451614" opacity="1" fill="#000000">
40.0
</text>
<polyline fill="none" opacity="1" stroke="#000000" stroke-width="1" points="76,103 81,103 "/>
<polyline fill="none" opacity="1" stroke="#000000" stroke-width="1" points="82,686 1018,686 "/>
<text x="104" y="696" dy="0.76em" text-anchor="middle" font-family="sans-serif" font-size="12.903225806451614" opacity="1" fill="#000000">
0.0
</text>
<polyline fill="none" opacity="1" stroke="#000000" stroke-width="1" points="104,686 104,691 "/>
<text x="294" y="696" dy="0.76em" text-anchor="middle" font-family="sans-serif" font-size="12.903225806451614" opacity="1" fill="#000000">
50.0
</text>
<polyline fill="none" opacity="1" stroke="#000000" stroke-width="1" points="294,686 294,691 "/>
<text x="485" y="696" dy="0.76em" text-anchor="middle" font-family="sans-serif" font-size="12.903225806451614" opacity="1" fill="#000000">
100.0
</text>
<polyline fill="none" opacity="1" stroke="#000000" stroke-width="1" points="485,686 485,691 "/>
<text x="675" y="696" dy="0.76em" text-anchor="middle" font-family="sans-serif" font-size="12.903225806451614" opacity="1" fill="#000000">
150.0
</text>
<polyline fill="none" opacity="1" stroke="#000000" stroke-width="1" points="675,686 675,691 "/>
<text x="866" y="696" dy="0.76em" text-anchor="middle" font-family="sans-serif" font-size="12.903225806451614" opacity="1" fill="#000000">
200.0
</text>
<polyline fill="none" opacity="1" stroke="#000000" stroke-width="1" points="866,686 866,691 "/>
<polyline fill="none" opacity="1" stroke="#000000" stroke-width="1" points="104,325 108,325 111,285 115,305 119,386 123,386 127,366 130,386 134,406 138,345 142,366 146,406 150,406 153,406 157,406 161,426 165,406 169,447 172,507 176,609 180,507 184,568 188,568 191,386 195,447 199,386 203,406 207,426 210,528 214,629 218,609 222,568 226,366 230,305 233,386 237,325 241,386 245,426 249,426 252,467 256,467 260,426 264,426 268,568 271,467 275,487 279,447 283,447 287,528 290,548 294,568 298,568 302,528 306,528 310,669 313,568 317,609 321,568 325,568 329,669 332,568 336,588 340,548 344,609 348,588 351,669 355,568 359,568 363,588 367,669 370,609 374,588 378,568 382,609 386,568 390,568 393,548 397,568 401,528 405,568 409,528 412,528 416,568 420,568 424,568 428,588 431,588 435,568 439,609 443,568 447,386 450,406 454,386 458,426 462,487 466,467 470,447 473,467 477,507 481,244 485,265 489,265 492,325 496,265 500,224 504,184 508,184 511,325 515,386 519,366 523,305 527,285 530,386 534,386 538,345 542,386 546,325 550,345 553,366 557,426 561,426 565,426 569,467 572,528 576,507 580,568 584,669 588,528 591,548 595,629 599,609 603,548 607,548 610,609 614,568 618,588 622,548 626,568 630,528 633,528 637,568 641,325 645,366 649,285 652,265 656,366 660,386 664,386 668,406 671,406 675,568 679,568 683,507 687,548 690,386 694,386 698,366 702,345 706,406 710,406 713,426 717,366 721,406 725,386 729,447 732,386 736,386 740,386 744,386 748,406 751,366 755,406 759,366 763,507 767,507 770,528 774,568 778,507 782,568 786,325 790,366 793,285 797,285 801,386 805,386 809,345 812,366 816,325 820,285 824,285 828,386 831,386 835,366 839,305 843,244 847,204 850,163 854,204 858,609 862,548 866,507 870,507 873,467 877,568 881,528 885,548 889,507 892,325 896,386 900,325 904,325 908,426 911,22 915,325 919,386 923,325 927,325 930,325 934,325 938,447 942,426 946,22 950,82 953,325 957,386 961,345 965,325 969,325 972,325 976,345 980,325 984,386 988,386 991,386 "/>
</svg>
